<svg width="35" height="14" viewBox="0 0 35 14" xmlns="http://www.w3.org/2000/svg"><title>Combined Shape</title><path d="M6.74.268L0 12.818h2.17l1.128-2.169h5.074l.376 2.17h2.08L8.515.268H6.74zm.341 3.155h.035l.933 5.432H4.231l2.85-5.432zm12.89 4.626l2.205.573c-.287 1.41-.873 2.508-1.757 3.29-.885.783-2.026 1.174-3.424 1.174-1.446 0-2.611-.502-3.496-1.506-.884-1.004-1.326-2.305-1.326-3.907 0-1.195.17-2.29.51-3.281.34-.991.798-1.802 1.372-2.43a6.283 6.283 0 0 1 1.927-1.45A5.061 5.061 0 0 1 18.196 0c1.399 0 2.513.415 3.343 1.246.83.83 1.246 1.927 1.246 3.289l-2.187.18c-.024-.825-.23-1.485-.618-1.981-.39-.496-.984-.745-1.784-.745-1.028 0-1.915.518-2.662 1.55-.747 1.035-1.121 2.287-1.121 3.757 0 1.184.24 2.1.718 2.752.477.65 1.123.977 1.936.977 1.446 0 2.414-.992 2.904-2.976zm3.441 4.768L25.617.268h2.115l-.896 5.163h4.733l.896-5.163h2.115l-2.205 12.55H30.26l.986-5.559h-4.733l-.986 5.558h-2.115z" fill-rule="evenodd"/></svg>