<svg width="17" height="8" viewBox="0 0 17 8" xmlns="http://www.w3.org/2000/svg"><title>Combined Shape</title><path d="M3.357.94L.071 7.06H1.13l.55-1.057h2.474l.183 1.057H5.35L4.222.94h-.865zm.166 1.539h.018l.454 2.649H2.133l1.39-2.65zm6.284 2.255l1.075.279c-.14.688-.426 1.223-.857 1.604-.43.382-.987.573-1.669.573-.705 0-1.273-.245-1.704-.735-.43-.489-.647-1.124-.647-1.904 0-.583.083-1.116.25-1.6.165-.483.388-.878.668-1.184a3.07 3.07 0 0 1 .94-.708A2.474 2.474 0 0 1 8.942.81c.68 0 1.224.203 1.63.608.403.404.606.939.606 1.603l-1.066.088c-.012-.403-.112-.724-.302-.966-.189-.242-.479-.363-.869-.363-.5 0-.934.252-1.298.756s-.546 1.114-.546 1.831c0 .577.116 1.024.35 1.342.232.317.547.476.943.476.705 0 1.177-.484 1.416-1.451zm1.678 2.325L12.56.94h1.03l-.436 2.517h2.307L15.898.94h1.03l-1.073 6.118h-1.032l.48-2.71h-2.306l-.481 2.71h-1.031z" fill-rule="evenodd"/></svg>