<svg width="38" height="41" viewBox="0 0 38 41" xmlns="http://www.w3.org/2000/svg"><title>Artboard Copy 321</title><path d="M21.872 25.79h8.773A3.356 3.356 0 0 1 34 29.145v6.303h-1.7v-6.303c0-.913-.741-1.655-1.655-1.655h-8.773v3.98h-1.7v-6.304c0-.914-.742-1.655-1.656-1.655H7.356c-.915 0-1.656.741-1.656 1.655v4.2c0 .223.18.403.403.403h7.683v1.7H6.103A2.103 2.103 0 0 1 4 29.366v-4.2a3.356 3.356 0 0 1 3.356-3.355h11.16a3.356 3.356 0 0 1 3.356 3.355v.624zm-8.967-6.788c-3.22 0-5.836-2.575-5.836-5.757 0-3.184 2.615-5.758 5.836-5.758 3.22 0 5.836 2.574 5.836 5.758 0 3.182-2.616 5.757-5.836 5.757zm0-1.7c2.287 0 4.136-1.82 4.136-4.057 0-2.239-1.849-4.058-4.136-4.058-2.288 0-4.136 1.819-4.136 4.058 0 2.237 1.848 4.057 4.136 4.057zM26.38 22.98c-3.22 0-5.836-2.574-5.836-5.756 0-3.184 2.615-5.758 5.836-5.758 3.22 0 5.836 2.574 5.836 5.758 0 3.182-2.616 5.756-5.836 5.756zm0-1.7c2.287 0 4.136-1.819 4.136-4.056 0-2.239-1.849-4.059-4.136-4.059-2.288 0-4.136 1.82-4.136 4.059 0 2.237 1.848 4.056 4.136 4.056zm0-19.58V0h11.618v1.7H26.38zm0 5.006v-1.7h11.618v1.7H26.38z"/></svg>