<svg xmlns="http://www.w3.org/2000/svg" viewBox="0 0 21 21"><title>analysis-icon</title><path d="M15.85 13.24a3 3 0 0 0-.66.08l-.24-.32c-.33-.47-.62-.86-.89-1.22a4.89 4.89 0 0 1-1.39-3.18V5.68a2.92 2.92 0 0 0 2-2.75 3 3 0 0 0-5.91 0 2.92 2.92 0 0 0 1.92 2.73v2.87a3.28 3.28 0 0 1-1.12 3l-3.42 3.79a2.91 2.91 0 1 0 2 2.74 2.87 2.87 0 0 0-.42-1.49l2.83-3.13.58-.7c.26-.31.46-.56.64-.8.22.34.47.67.74 1s.53.71.85 1.16l.19.25a2.88 2.88 0 0 0-.62 1.78 3 3 0 1 0 3-2.92zM5.15 19a.95.95 0 1 1 1-.94 1 1 0 0 1-1 .94zm6.56-17a1 1 0 0 1 1 .95 1 1 0 0 1-2 0 1 1 0 0 1 1-.95zm4.13 15.13a.95.95 0 1 1 1-.95 1 1 0 0 1-.99.93z"/></svg>