<svg width="30" height="24" viewBox="0 0 30 24" xmlns="http://www.w3.org/2000/svg"><title>Combined Shape</title><path d="M13.398 22.264h6.59a.276.276 0 0 0 .276-.276V7.724a.276.276 0 0 0-.276-.276h-6.532l-.058 14.816zm-1.7 0l.057-14.816h-1.527a.276.276 0 0 0-.276.276v14.264c0 .152.124.276.276.276h1.47zm-3.446-4.36l-6.365.005A1.883 1.883 0 0 1 0 16.025V1.885C0 .843.844 0 1.884 0h26.231C29.156 0 30 .843 30 1.884v14.141a1.884 1.884 0 0 1-1.887 1.884l-6.149-.006v4.085a1.976 1.976 0 0 1-1.976 1.976h-9.76a1.976 1.976 0 0 1-1.976-1.976v-4.084zm13.712-1.7l6.152.005a.184.184 0 0 0 .184-.184V1.885a.184.184 0 0 0-.185-.185H1.885a.184.184 0 0 0-.185.184v14.141c0 .102.082.184.185.184l6.367-.005v-3.816H4.421a.85.85 0 0 1-.85-.85V6.11c0-.47.38-.85.85-.85h21.634c.47 0 .85.38.85.85v5.427a.85.85 0 0 1-.85.85h-4.09v3.815zm0-5.516h3.241V6.96h-3.393c.098.234.152.492.152.763v2.964zM8.405 6.96H5.271v3.727h2.981V7.724c0-.27.055-.529.153-.763z"/></svg>