<svg width="37" height="30" viewBox="0 0 37 30" xmlns="http://www.w3.org/2000/svg"><title>Artboard Copy 209</title><path d="M23.715 14.15h4.117a4.624 4.624 0 1 1 0 1.7h-4.117a4.625 4.625 0 0 1-6.566 3.31l-2.137 3.07a4.624 4.624 0 1 1-1.366-1.013l2.137-3.07A4.608 4.608 0 0 1 14.547 15c0-1.216.469-2.321 1.236-3.146l-2.137-3.072a4.624 4.624 0 1 1 1.366-1.013l2.137 3.072a4.624 4.624 0 0 1 6.567 3.31zM11.624 1.7a2.923 2.923 0 1 0-.001 5.845 2.923 2.923 0 0 0 0-5.845zm0 20.753a2.923 2.923 0 1 0-.001 5.846 2.923 2.923 0 0 0 0-5.846zm20.753-10.376a2.923 2.923 0 1 0 0 5.845 2.923 2.923 0 0 0 0-5.845zm-13.207 0a2.923 2.923 0 1 0 0 5.845 2.923 2.923 0 0 0 0-5.845z"/></svg>