<svg width="24" height="30" viewBox="0 0 24 30" xmlns="http://www.w3.org/2000/svg"><title>Combined Shape</title><path d="M1.821 16.768v1.353C1.821 23.718 6.403 28.3 12 28.3s10.179-4.582 10.179-10.179v-1.39c-9.069-.794-17.905-.169-20.358.037zm.232-7.049c8.497 1.119 16.815.385 19.9.033C20.969 5.167 16.869 1.7 12 1.7c-4.856 0-8.949 3.45-9.947 8.019zM12 30C5.465 30 .121 24.656.121 18.121v-6.242C.121 5.344 5.465 0 12 0c6.535 0 11.879 5.344 11.879 11.879v6.242C23.879 24.656 18.535 30 12 30zm4.58-15.352a1.437 1.437 0 1 0-.001-2.874 1.437 1.437 0 0 0 0 2.874zm-9.293 0a1.438 1.438 0 1 0 0-2.876 1.438 1.438 0 0 0 0 2.876z"/></svg>