<svg width="28" height="30" viewBox="0 0 28 30" xmlns="http://www.w3.org/2000/svg"><title>Combined Shape</title><path d="M2.993 16.465a5.045 5.045 0 0 1-1.138-.656c-.586-.451-.937-.92-1.104-1.277a.85.85 0 0 1 .178-.972c.032-.03.109-.115.216-.252.19-.242.383-.534.564-.875.355-.67.618-1.436.75-2.299.397-2.618.946-4.397 2.271-6.161C6.643 1.427 9.714 0 14.15 0c4.407 0 7.509 1.6 9.422 4.34 1.298 1.86 1.908 4.058 1.974 5.823.006.154.027.32.065.497.114.535.366 1.134.716 1.75a10.685 10.685 0 0 0 .814 1.227.85.85 0 0 1-.116 1.186 6.74 6.74 0 0 1-.89.613 5.24 5.24 0 0 1-1.128.507v3.05C25.007 25.05 20.057 30 14 30 7.944 30 2.993 25.05 2.993 18.993v-2.528zm1.7-.55v3.078c0 5.117 4.19 9.307 9.307 9.307s9.307-4.19 9.307-9.307v-3.756a5.165 5.165 0 0 0-.071-.47 5.46 5.46 0 0 0-.369-1.196c-.223-.497-.51-.887-.86-1.142l-.085-.071c-1.153-1.097-13.317-1.227-15.925.081-.33.32-.597.723-.805 1.194a6.024 6.024 0 0 0-.435 1.551 5.14 5.14 0 0 0-.064.73zm8.753 8.768a6.895 6.895 0 0 1-1.257.446 3.82 3.82 0 0 1-.88.112.85.85 0 0 1 0-1.7c.137 0 .302-.022.487-.066a5.24 5.24 0 0 0 .944-.338c.356-.162.646-.325.806-.426a.85.85 0 0 1 .95.028c.13.093.382.248.709.404.525.25 1.041.398 1.487.398a.85.85 0 1 1 0 1.7c-.738 0-1.485-.213-2.22-.564a7.736 7.736 0 0 1-.492-.257 9.581 9.581 0 0 1-.534.263z"/></svg>