<svg width="28" height="30" viewBox="0 0 28 30" xmlns="http://www.w3.org/2000/svg"><title>Combined Shape</title><path d="M3.198 18.777a159.416 159.416 0 0 1-1.001 9.475c.275-.02.567-.046.873-.08 1.413-.153 2.823-.422 4.131-.832a13.23 13.23 0 0 0 2.261-.927c-2.727-1.562-4.613-4.442-4.774-7.756a84.61 84.61 0 0 0-1.49.12zm.39-7.126c.364.05.727.096 1.089.139v-.587l.506-.224 4.876-2.156a2.413 2.413 0 0 1 1.66-.106c2.829.84 6.624 1.459 11.028 1.409l.86-.01v1.625c.478-.054.845-.1 1.087-.132C24.348 6.102 19.732 1.7 14.142 1.7c-5.597 0-10.217 4.413-10.554 9.951zm21.276 7.131a87.99 87.99 0 0 0-1.269-.114c-.166 3.329-2.07 6.218-4.82 7.772.293.151.593.292.902.422 1.347.568 2.795.92 4.269 1.095.673.08 1.293.117 1.837.123a64.57 64.57 0 0 1-.416-3.02 97.562 97.562 0 0 1-.503-6.278zm-2.957-6.87v-.085c-4.225-.032-7.878-.65-10.67-1.48a.71.71 0 0 0-.491.03l-3.724 1.648c5.992.496 11.57.185 14.885-.113zm-.008 6.63c-6.163-.402-11.994-.203-15.514.003.185 4.108 3.606 7.413 7.757 7.413 4.152 0 7.574-3.307 7.757-7.416zm-10.533 8.7c-1.028.716-2.261 1.283-3.657 1.72-1.424.446-2.94.736-4.455.9A24.705 24.705 0 0 1 1.217 30a.85.85 0 0 1-.847-.972c.556-3.825.957-7.793 1.227-11.673a161.179 161.179 0 0 0 .26-4.748l.012-.333C1.869 5.521 7.389 0 14.142 0c6.752 0 12.273 5.521 12.273 12.285l-.002.16c-.008 1.126.01 2.662.073 4.46.095 2.735.279 5.438.57 7.96.16 1.387.348 2.688.569 3.887a.85.85 0 0 1-.766 1.001 4.97 4.97 0 0 1-.244.014c-2.23.1-4.953-.223-7.598-1.338a13.82 13.82 0 0 1-2.192-1.16 9.398 9.398 0 0 1-2.683.39 9.396 9.396 0 0 1-2.776-.418zm7.031-10.624a1.437 1.437 0 1 0 0-2.874 1.437 1.437 0 0 0 0 2.874zm-9.292 0a1.438 1.438 0 1 0 0-2.876 1.438 1.438 0 0 0 0 2.876z"/></svg>