<svg width="24" height="30" viewBox="0 0 24 30" xmlns="http://www.w3.org/2000/svg"><title>Combined Shape</title><path d="M1.821 17.832v.289C1.821 23.718 6.403 28.3 12 28.3s10.179-4.582 10.179-10.179v-.295c-8.92-.8-17.656-.215-20.358.006zm.057-7.034c8.839 1.163 17.481.323 20.243-.008C21.572 5.7 17.229 1.7 12 1.7c-5.232 0-9.577 4.004-10.122 9.098zM12 30C5.465 30 .121 24.656.121 18.121v-6.242C.121 5.344 5.465 0 12 0c6.535 0 11.879 5.344 11.879 11.879v6.242C23.879 24.656 18.535 30 12 30zm-.784-7.07a8.43 8.43 0 0 1-1.537.546c-.368.088-.72.135-1.054.135a.85.85 0 0 1 0-1.7c.19 0 .414-.03.66-.089.378-.09.794-.241 1.224-.438a10.327 10.327 0 0 0 1.037-.549.85.85 0 0 1 .95.029c.172.123.499.324.922.526.685.327 1.361.52 1.957.52a.85.85 0 0 1 0 1.7c-.888 0-1.796-.259-2.69-.686a9.335 9.335 0 0 1-.707-.374c-.218.119-.476.25-.762.38zm5.182-7.203a1.437 1.437 0 1 0 0-2.874 1.437 1.437 0 0 0 0 2.874zm-9.293 0a1.438 1.438 0 1 0 0-2.876 1.438 1.438 0 0 0 0 2.876z"/></svg>