<svg width="31" height="31" viewBox="0 0 31 31" xmlns="http://www.w3.org/2000/svg"><title>Combined Shape</title><path d="M16.436 2a1.573 1.573 0 1 0 0 3.146 1.573 1.573 0 0 0 0-3.146zm-2.859 25.727V30.3h-2v-2.58a9.36 9.36 0 0 1-8.001-5.139H0V14.15h3.583a9.405 9.405 0 0 1 2.564-3.14L4.92 6.8l.897-.313c.108-.038.276-.085.496-.13 1.024-.21 2.134-.169 3.205.314.983.442 1.802 1.215 2.402 2.333h9.019a9.36 9.36 0 0 1 9.36 9.362 9.362 9.362 0 0 1-9.003 9.355v2.58h-2v-2.573h-5.719zM16.437 0a3.573 3.573 0 1 1 0 7.146 3.573 3.573 0 0 1 0-7.146zM2 20.581h2.882l.256.615a7.362 7.362 0 0 0 6.796 4.531h9.005a7.361 7.361 0 0 0 0-14.723H10.628l-.259-.61c-.42-.996-.988-1.592-1.672-1.9a3.019 3.019 0 0 0-1.275-.255L8.47 11.83l-.61.407a7.4 7.4 0 0 0-2.714 3.298l-.257.614H2v4.432zm10.864-5.352v-2h7.145v2h-7.145z"/></svg>