<svg width="31" height="29" viewBox="0 0 31 29" xmlns="http://www.w3.org/2000/svg"><title>Combined Shape</title><path d="M13.709.368a3.012 3.012 0 0 1 2.882 0l12.303 6.71a2.697 2.697 0 0 1 1.407 2.367v1.616a2.236 2.236 0 0 1-2.238 2.236H0V9.625c0-1.098.6-2.107 1.563-2.632L13.709.368zM2.52 8.748a.998.998 0 0 0-.52.877v1.672h26.063a.236.236 0 0 0 .238-.236V9.445a.698.698 0 0 0-.364-.61L15.634 2.122a1.011 1.011 0 0 0-.968 0L2.52 8.748zm2.053 16.127h-2v-9.718h2v9.718zm7.718 0h-2v-9.718h2v9.718zm7.718 0h-2v-9.718h2v9.718zm7.718 0h-2v-9.718h2v9.718zM0 28.734v-2h30.3v2H0z"/></svg>