<svg width="25" height="30" viewBox="0 0 25 30" xmlns="http://www.w3.org/2000/svg"><title>Combined Shape</title><path d="M14.762 16.912v.776c0 .665 1.658 1.494 3.838 1.494s3.838-.829 3.838-1.494v-.777c-1.005.54-2.366.846-3.838.846s-2.833-.306-3.838-.845zm-1.7-2.32v-.029c0-1.924 2.54-3.194 5.538-3.194s5.538 1.27 5.538 3.194v6.251c0 1.924-2.54 3.194-5.538 3.194-2.999 0-5.538-1.27-5.538-3.194v-6.221zm9.376 5.445c-1.005.54-2.366.845-3.838.845s-2.833-.306-3.838-.845v.777c0 .665 1.658 1.494 3.838 1.494s3.838-.83 3.838-1.494v-.777zM10.283 7.547V4.245h1.7v3.302h2.352L16.513 1.7H5.756l2.192 5.847h2.334zm4.083 1.7H7.918L2.022 22.9c-1.102 2.552.77 5.399 3.55 5.399H16.7a3.862 3.862 0 0 0 3.754-2.927l.21-.823 1.647.418-.209.824A5.561 5.561 0 0 1 16.699 30H5.572C1.57 30-1.126 25.9.461 22.227L6.443 8.374l-2.71-7.226A.85.85 0 0 1 4.53 0h13.207a.85.85 0 0 1 .797 1.146L15.84 8.374l.868 2.015-1.561.673-.782-1.815zm4.234 3.822c-2.18 0-3.838.83-3.838 1.494 0 .665 1.658 1.494 3.838 1.494s3.838-.829 3.838-1.494S20.78 13.07 18.6 13.07z"/></svg>