<svg width="20" height="30" viewBox="0 0 20 30" xmlns="http://www.w3.org/2000/svg"><title>Combined Shape</title><path d="M10.846 8.342h1.422v1.7h-1.422v2.853h-1.7v-2.853H7.724v-1.7h1.422V6.667h1.7v1.675zm-9.134 6.31L.189 10.739a.85.85 0 0 1 .173-.89L9.375.268a.85.85 0 0 1 1.238 0l9.024 9.58a.85.85 0 0 1 .178.88l-1.465 3.925h.226a.85.85 0 1 1 0 1.7h-.305v5.372c0 4.553-3.721 8.275-8.274 8.275-4.554 0-8.277-3.722-8.277-8.275v-5.372h-.304a.85.85 0 0 1 0-1.7h.296zm1.824 0h13l1.501-4.024L9.995 2.09l-8.027 8.532 1.568 4.03zm-.115 1.7v5.373c0 3.614 2.96 6.575 6.576 6.575 3.614 0 6.575-2.96 6.575-6.575v-5.372H3.42zm6.162 8.864a5.941 5.941 0 0 1-1.087.385 3.353 3.353 0 0 1-.772.098.85.85 0 0 1 0-1.7c.105 0 .233-.018.38-.052.235-.056.499-.152.773-.278.294-.134.534-.268.664-.35a.85.85 0 0 1 .95.027c.104.074.31.201.579.33.427.203.845.323 1.198.323a.85.85 0 1 1 0 1.7c-.645 0-1.294-.186-1.93-.49a6.748 6.748 0 0 1-.361-.185 8.65 8.65 0 0 1-.394.192z"/></svg>