<svg width="22" height="30" viewBox="0 0 22 30" xmlns="http://www.w3.org/2000/svg"><title>Artboard Copy 300</title><path d="M4.432 12.864V3.859h2.572V0h1.7v3.86h2.16V0h1.7v3.862a5.323 5.323 0 0 1 5.145 5.35 5.335 5.335 0 0 1-1.534 3.767 6.611 6.611 0 0 1 5.393 6.523 6.615 6.615 0 0 1-6.639 6.639h-2.365V30h-1.7v-3.86h-2.16V30h-1.7v-3.86H4.433V12.864zm1.7 0h6.225a3.625 3.625 0 0 0 3.652-3.652 3.624 3.624 0 0 0-3.597-3.653h-6.28v7.305zM14.93 24.44a4.915 4.915 0 0 0 4.939-4.939 4.914 4.914 0 0 0-4.94-4.938H6.132v9.877h8.799z"/></svg>