<svg width="30" height="28" viewBox="0 0 30 28" xmlns="http://www.w3.org/2000/svg"><title>Combined Shape</title><path d="M17.608 4.265a12.455 12.455 0 0 1 3.736 2.673l.966-1.35-1.843-1.318-.717-.512-1.176-.843-.966 1.35zm-1.642-.627l1.72-2.403a.85.85 0 0 1 1.186-.197l1.867 1.337.116-.162a5.058 5.058 0 0 1 7.04-1.167 5.058 5.058 0 0 1 1.167 7.04l-1.105 1.545-1.383-.99.495-.69.61-.854a3.358 3.358 0 0 0-.774-4.668 3.358 3.358 0 0 0-4.667.773l-.116.162 1.868 1.337a.85.85 0 0 1 .197 1.186l-1.72 2.404c3 4.192 3.164 9.995-.003 14.421-3.982 5.564-11.721 6.847-17.285 2.865s-6.846-11.72-2.863-17.284c3.168-4.427 8.713-6.143 13.65-4.655zm2.644 3.173C13.81 3.375 7.134 4.48 3.698 9.282c-3.436 4.8-2.33 11.477 2.47 14.912 4.8 3.436 11.478 2.33 14.913-2.471 3.435-4.8 2.33-11.476-2.471-14.912z"/></svg>