<svg width="26" height="30" viewBox="0 0 26 30" xmlns="http://www.w3.org/2000/svg"><title>Combined Shape</title><path d="M22.525 30H3.475a2.765 2.765 0 0 1-2.759-2.759V2.759C.716 1.239 1.956 0 3.475 0h19.05c1.52 0 2.759 1.24 2.759 2.759v24.482c0 1.52-1.24 2.759-2.759 2.759zm0-1.7c.58 0 1.059-.478 1.059-1.059V2.759c0-.58-.478-1.059-1.059-1.059H3.475c-.58 0-1.059.478-1.059 1.059v24.482c0 .58.478 1.059 1.059 1.059h19.05zM6.918 7.557v-1.7h2.78v1.7h-2.78zm4.803.063v-1.7h2.781v1.7h-2.78zm4.677 0v-1.7h2.781v1.7H16.4zm-9.48 3.56v-1.7h2.78v1.7h-2.78zm4.803.064v-1.7h2.781v1.7h-2.78zm4.677 0v-1.7h2.781v1.7H16.4zm-9.48 3.56v-1.7h2.78v1.7h-2.78zm4.803.064v-1.7h2.781v1.7h-2.78zm4.677 0v-1.7h2.781v1.7H16.4zm-9.48 3.56v-1.7h2.78v1.7h-2.78zm0 3.624v-1.7h2.78v1.7h-2.78zm4.88-3.533v-1.7h2.781v1.7H11.8zm0 3.624v-1.7h2.781v1.7H11.8z"/></svg>