<svg width="14" height="14" viewBox="0 0 14 14" xmlns="http://www.w3.org/2000/svg"><title>Combined Shape</title><path d="M12.461 8.506a2.25 2.25 0 0 1-.588 2.158L9.397 13.14a2.25 2.25 0 0 1-3.06.116 1.96 1.96 0 0 1-2.189-.402L1.26 9.965A1.96 1.96 0 0 1 .9 7.687a4.828 4.828 0 0 1 .616-6.074C2.946.183 5.067-.213 7.015.68a4.828 4.828 0 0 1 5.615 1.04c1.772 1.881 1.66 4.895-.17 6.786zm-.503-.937c1.257-1.521 1.27-3.758-.055-5.163a3.832 3.832 0 0 0-5.512-.068L3.715 4.756a1.977 1.977 0 0 0 2.37-.324l.583-.584a.5.5 0 0 1 .349-.146l.482-.004c.916-.005 1.956-.005 3.03.004l-.01 1c-.49-.004-.972-.006-1.44-.007l2.794 2.785c.03.03.058.059.085.09zM7.665 4.698a208.326 208.326 0 0 0-.434.002l-.44.44a2.976 2.976 0 0 1-4.209 0 .5.5 0 0 1 .019-.725l3.101-2.802a4.9 4.9 0 0 1 .275-.254C4.602.967 3.21 1.334 2.222 2.32a3.828 3.828 0 0 0-.622 4.6 1.961 1.961 0 0 1 2.43.273l2.89 2.889a1.96 1.96 0 0 1 .212 2.52c.484.31 1.135.253 1.558-.17l2.476-2.476a1.251 1.251 0 0 0 0-1.77l-3.5-3.49zm-2.81 7.449a.96.96 0 1 0 1.357-1.357L3.323 7.901a.96.96 0 1 0-1.357 1.357l2.89 2.889z"/></svg>