<svg width="30" height="30" viewBox="0 0 30 30" xmlns="http://www.w3.org/2000/svg"><title>Combined Shape</title><path d="M26.792 18.256a4.723 4.723 0 0 1-1.194 4.665l-5.477 5.477a4.72 4.72 0 0 1-6.542.133 4.079 4.079 0 0 1-4.705-.766l-6.389-6.389a4.08 4.08 0 0 1-.677-4.872A10.42 10.42 0 0 1 3.052 3.27C6.166.155 10.796-.69 15.036 1.305a10.422 10.422 0 0 1 12.231 2.193c3.854 4.093 3.575 10.678-.475 14.758zm-.828-1.603c3.054-3.463 3.152-8.711.065-11.99-3.379-3.588-9.04-3.668-12.547-.162l-6.17 5.575a4.627 4.627 0 0 0 5.845-.574l1.29-1.29a.85.85 0 0 1 .593-.25l.28-.002.784-.005a487.09 487.09 0 0 1 6.696.007l-.014 1.7c-1.301-.01-2.581-.015-3.806-.015l6.618 6.595c.131.131.254.269.366.411zm-9.387-7a480.99 480.99 0 0 0-1.174.006l-1.044 1.045a6.326 6.326 0 0 1-8.947 0 .85.85 0 0 1 .031-1.231l6.868-6.204c.306-.305.625-.588.957-.848-3.276-1.112-6.656-.308-9.014 2.05C1.372 7.353.894 11.814 2.979 15.19a4.08 4.08 0 0 1 5.272.421l6.39 6.39a4.078 4.078 0 0 1 .286 5.446 3.023 3.023 0 0 0 3.992-.25l5.477-5.477a3.023 3.023 0 0 0 0-4.274l-7.819-7.793zm-3.14 16.91a2.378 2.378 0 0 0 .001-3.362L7.05 16.812a2.378 2.378 0 0 0-3.362 3.362l6.39 6.39a2.378 2.378 0 0 0 3.36 0z"/></svg>