<svg width="14" height="14" viewBox="0 0 14 14" xmlns="http://www.w3.org/2000/svg"><title>Combined Shape</title><path d="M9.888 1.75h2.284c.826 0 1.495.67 1.495 1.496v7.667A3.087 3.087 0 0 1 10.582 14H1.829c-.826 0-1.496-.67-1.496-1.496V3.246c0-.826.67-1.496 1.496-1.496h1.885V.7a.7.7 0 0 1 1.4 0v1.05h3.374V.7a.7.7 0 0 1 1.4 0v1.05zm0 1.4v1.13a.7.7 0 0 1-1.4 0V3.15H5.114v1.13a.7.7 0 0 1-1.4 0V3.15H1.83a.097.097 0 0 0-.097.096v9.258c0 .053.044.096.097.096h8.752c.93 0 1.687-.756 1.687-1.687V3.246a.096.096 0 0 0-.097-.096H9.889z"/></svg>