<svg width="18" height="18" viewBox="0 0 18 18" xmlns="http://www.w3.org/2000/svg"><title>Combined Shape</title><path d="M12.583 2.306h3.23c.966 0 1.748.782 1.748 1.748v10.101A3.845 3.845 0 0 1 13.716 18H2.187a1.748 1.748 0 0 1-1.748-1.748V4.054c0-.966.783-1.748 1.749-1.748h2.706V.7a.7.7 0 0 1 1.4 0v1.606h4.89V.7a.7.7 0 0 1 1.4 0v1.606zm0 1.4v1.711a.7.7 0 0 1-1.4 0V3.706h-4.89v1.711a.7.7 0 0 1-1.4 0V3.706H2.187a.348.348 0 0 0-.348.348v12.198c0 .192.155.348.348.348h11.53a2.445 2.445 0 0 0 2.444-2.445V4.054a.348.348 0 0 0-.348-.348h-3.23z"/></svg>