<svg width="30" height="24" viewBox="0 0 30 24" xmlns="http://www.w3.org/2000/svg"><title>Combined Shape</title><path d="M11.668 11.72l-11.666.014-.002-1.7 10.287-.013-3.22-5.636-7.065.005L0 2.69l8.053-.006 4.191 7.336h5.719c1.09 0 1.973.883 1.973 1.973v8.109h-3.234a3.995 3.995 0 0 1-7.805 0H0v-1.7h8.896a3.994 3.994 0 0 1 7.805 0h1.534v-6.41a.273.273 0 0 0-.273-.272h-6.295zm1.131 5.239a2.293 2.293 0 1 0 0 4.585 2.293 2.293 0 0 0 0-4.585zm5.937-11.984l-1.64.45-1.192-4.35c-.202-.736.593-1.345 1.25-.957l4.755 2.8 4.45-1.87a.85.85 0 0 1 1.146 1.015L25.813 8.05l3.1 3.227a.85.85 0 0 1-.284 1.373l-4.35 1.824-.657-1.568 3.207-1.345-2.58-2.685a.85.85 0 0 1-.204-.82L25.389 3.3l-3.214 1.35a.85.85 0 0 1-.76-.05l-3.318-1.954.64 2.33z"/></svg>