<svg width="30" height="19" viewBox="0 0 30 19" xmlns="http://www.w3.org/2000/svg"><title>Combined Shape</title><path d="M11.32 1.6H5.929L2.354 6.603h8.966V1.6zm1.6 0v5.003h8.198L18.258 1.6H12.92zM1.6 8.203v5.947h1.318a3.631 3.631 0 0 1 7.084 0h9.896a3.631 3.631 0 0 1 7.084 0H28.3V8.414a.211.211 0 0 0-.211-.211H1.6zm18.298 7.547h-9.896a3.631 3.631 0 0 1-7.084 0H.8a.8.8 0 0 1-.8-.8V7.403a.8.8 0 0 1 .149-.465L4.866.335A.8.8 0 0 1 5.517 0h13.206a.8.8 0 0 1 .695.403l3.543 6.2h5.128c1 0 1.811.811 1.811 1.811v6.536a.8.8 0 0 1-.8.8h-2.118a3.631 3.631 0 0 1-7.084 0zM6.46 12.92a2.03 2.03 0 1 0 0 4.06 2.03 2.03 0 0 0 0-4.06zm16.98 0a2.03 2.03 0 1 0 0 4.06 2.03 2.03 0 0 0 0-4.06z"/></svg>