<svg width="39" height="31" viewBox="0 0 39 31" xmlns="http://www.w3.org/2000/svg"><title>Artboard Copy 176</title><path d="M33.734 21.588a6.261 6.261 0 1 1 1.202-1.202l3.28 3.28-1.202 1.201-3.28-3.28zm-3.866 3.85h1.7v2.303A2.764 2.764 0 0 1 28.81 30.5H9.76A2.764 2.764 0 0 1 7 27.741V3.258A2.763 2.763 0 0 1 9.758.5h19.053a2.764 2.764 0 0 1 2.758 2.758v4.878h-1.7V3.258c0-.58-.479-1.058-1.058-1.058H9.759c-.58 0-1.059.478-1.059 1.058v24.483c0 .58.478 1.059 1.059 1.059H28.81c.58 0 1.059-.479 1.059-1.059v-2.303zm-18.141.232v-1.7h14.727v1.7H11.727zm-.235-13.289v-1.7h10.901v1.7h-10.9zm.235 8.907v-1.7h9.75v1.7h-9.75zm0-4.365v-1.7h7v1.7h-7zm18.222-4.884a4.56 4.56 0 1 0 0 9.121 4.56 4.56 0 0 0 0-9.121z"/></svg>