<svg width="30" height="30" viewBox="0 0 30 30" xmlns="http://www.w3.org/2000/svg"><title>Combined Shape</title><path d="M13.829 16.464v1.7H8.062v-.85c0-1.495-1.134-2.629-2.63-2.629h-.85V7.767h.85c1.496 0 2.63-1.133 2.63-2.629v-.85h13.876v.85c0 1.496 1.133 2.63 2.629 2.63h.85v5.037h-1.7V9.388a4.246 4.246 0 0 1-3.4-3.4H9.683a4.246 4.246 0 0 1-3.4 3.4v3.677a4.246 4.246 0 0 1 3.4 3.4h4.146zm3.151 6.083h1.7v3.773c0 .933 2.093 1.98 4.81 1.98 2.717 0 4.81-1.047 4.81-1.98v-3.773H30v3.773c0 2.192-2.975 3.68-6.51 3.68-3.535 0-6.51-1.488-6.51-3.68v-3.773zm0-3.774h1.7v3.773c0 .934 2.093 1.98 4.81 1.98 2.717 0 4.81-1.046 4.81-1.98v-3.773H30v3.773c0 2.193-2.975 3.68-6.51 3.68-3.535 0-6.51-1.487-6.51-3.68v-3.773zm6.51-3.68c3.535 0 6.51 1.488 6.51 3.68 0 2.193-2.975 3.68-6.51 3.68-3.535 0-6.51-1.487-6.51-3.68 0-2.192 2.975-3.68 6.51-3.68zm0 1.7c-2.717 0-4.81 1.047-4.81 1.98 0 .934 2.093 1.98 4.81 1.98 2.717 0 4.81-1.046 4.81-1.98 0-.933-2.093-1.98-4.81-1.98zm-8.65 3.96v1.7H1.856A1.857 1.857 0 0 1 0 20.596V1.857C0 .832.832 0 1.857 0h25.27A2.874 2.874 0 0 1 30 2.873v11.023h-1.7V2.873c0-.647-.525-1.173-1.174-1.173H1.857a.157.157 0 0 0-.157.157v18.74c0 .086.07.156.157.156H14.84zM15 8.442a2.785 2.785 0 1 1 0 5.57 2.785 2.785 0 0 1 0-5.57zm0 1.7a1.085 1.085 0 1 0 0 2.17 1.085 1.085 0 0 0 0-2.17z"/></svg>