<svg width="14" height="14" viewBox="0 0 14 14" xmlns="http://www.w3.org/2000/svg"><title>Combined Shape</title><path d="M2.638 13.12A1.54 1.54 0 0 1 0 12.04v-8.4A3.22 3.22 0 0 1 3.22.421h7.56A3.22 3.22 0 0 1 14 3.641v3.991a3.22 3.22 0 0 1-3.22 3.22H4.929a.139.139 0 0 0-.1.041l-2.19 2.227zM3.83 9.911c.29-.295.685-.46 1.098-.46h5.851a1.82 1.82 0 0 0 1.82-1.82v-3.99a1.82 1.82 0 0 0-1.82-1.82H3.22a1.82 1.82 0 0 0-1.82 1.82v8.398a.14.14 0 0 0 .24.097l2.191-2.224zm.65-4.899a.7.7 0 0 1 0-1.4h5.46a.7.7 0 0 1 0 1.4H4.48zm0 2.52a.7.7 0 0 1 0-1.4h2.94a.7.7 0 0 1 0 1.4H4.48z"/></svg>