<svg width="40" height="30" viewBox="0 0 40 30" xmlns="http://www.w3.org/2000/svg"><title>Artboard Copy 179</title><path d="M30.869 25.38h1.7v1.84a2.785 2.785 0 0 1-2.78 2.78h-19.01a2.785 2.785 0 0 1-2.778-2.78V2.78A2.784 2.784 0 0 1 10.78 0h19.009c1.53 0 2.78 1.25 2.78 2.78v8.989h-1.7v-8.99c0-.591-.488-1.08-1.08-1.08h-19.01c-.59 0-1.079.489-1.079 1.08v24.44c0 .593.488 1.08 1.08 1.08h19.009c.592 0 1.08-.487 1.08-1.08v-1.838zm-18.142-1.06l11.409-.126-11.41.127zm.01.85l-.02-1.7 11.41-.126.018 1.7-11.409.127zm6.89-18.877v-1.7h7.595v1.7h-7.595zm-6.9 14.495v-1.7h9.05v1.7h-9.05zm13.624 3.22l1.317-3.462a.7.7 0 0 1 .16-.246l9.024-9.026a.7.7 0 0 1 .99 0l2.146 2.146a.7.7 0 0 1 0 .99l-9.026 9.025a.7.7 0 0 1-.246.16l-3.462 1.316a.7.7 0 0 1-.903-.903zm3.727-1.67l8.425-8.423-1.156-1.156-8.424 8.425-.709 1.864 1.864-.71z"/></svg>