<svg width="30" height="30" viewBox="0 0 30 30" xmlns="http://www.w3.org/2000/svg"><title>Combined Shape</title><path d="M16.139 6.805l-9.908 3.68 20.183 3.783-8.58-7.265-.401 1.932-1.665-.346.37-1.784zm.383-1.847L17.552 0l1.665.346L18.2 5.238c.258.119.502.274.725.462l10.415 8.82a1.86 1.86 0 0 1 .627 1.768l-2.11 11.116a2.196 2.196 0 0 1-2.568 1.75l-23.501-4.46a2.199 2.199 0 0 1-1.75-2.568l2.081-10.97A1.86 1.86 0 0 1 3.3 9.759l12.437-4.618c.256-.095.52-.156.785-.183zm11.706 11.38l-24.49-4.592-2.03 10.697a.5.5 0 0 0 .397.582l23.502 4.457c.27.051.53-.126.581-.395l2.04-10.75zM4.738 14.07l1.67.323-1.404 7.25-1.67-.324L4.74 14.07zm3.256.617l1.669.324-1.404 7.249-1.67-.324 1.405-7.249zm3.255.618l1.669.323-1.404 7.25-1.67-.324 1.405-7.25zm3.255.617l1.669.323-1.404 7.25-1.67-.324 1.405-7.249zm3.255.617l1.669.324-1.404 7.249-1.67-.324 1.405-7.249zm3.255.618l1.668.323-1.404 7.25-1.668-.324 1.404-7.25zm3.255.617l1.668.323-1.404 7.25-1.668-.324 1.404-7.249z"/></svg>