<svg width="17" height="14" viewBox="0 0 17 14" xmlns="http://www.w3.org/2000/svg"><title>Artboard Copy 177</title><path d="M12.684 11.378l.9.004-.005.78a1.27 1.27 0 0 1-1.273 1.259l-8.046-.043A1.27 1.27 0 0 1 3 12.105L3.055 1.76A1.27 1.27 0 0 1 4.329.5l8.044.043a1.27 1.27 0 0 1 1.261 1.273l-.02 3.805-.9-.004.02-3.805a.37.37 0 0 0-.365-.369L4.325 1.4a.37.37 0 0 0-.37.365L3.898 12.11c0 .2.165.368.366.369l8.046.043a.37.37 0 0 0 .369-.364l.004-.78zm-7.584-.04l-.005-.9 4.829-.027.005.9-4.829.028zm2.958-7.974l.005-.9 3.215.017-.005.9-3.215-.017zm-2.953 6.12l.005-.9 3.83.02-.005.9-3.83-.02zm5.616 1.248l.565-1.462.104-.158 3.84-3.8a.45.45 0 0 1 .637.003l.903.912a.45.45 0 0 1-.003.637l-3.841 3.8-.16.102-1.467.55a.45.45 0 0 1-.578-.584zm1.64-.775l3.453-3.416-.27-.273-3.453 3.416-.169.437.44-.164z"/></svg>