<svg width="30" height="31" viewBox="0 0 30 31" xmlns="http://www.w3.org/2000/svg"><title>Combined Shape</title><path d="M15.55 17.777v-1.599h1.3v1.6h1.099v-2.402a.65.65 0 0 1 .2-.47 4.548 4.548 0 1 0-6.297 0 .65.65 0 0 1 .2.47v2.401h1.099v-1.599h1.3v1.6h1.098zm-1.4 7.078H3.422A3.422 3.422 0 0 1 0 21.43V3.422A3.422 3.422 0 0 1 3.422 0h23.155A3.423 3.423 0 0 1 30 3.422v18.01a3.422 3.422 0 0 1-3.423 3.423H15.85v3.295h7.868v2H6.282v-2h7.868v-3.295zm12.427-1.7c.952 0 1.723-.771 1.723-1.724V3.422c0-.951-.771-1.723-1.723-1.723H3.422c-.951 0-1.722.772-1.722 1.723v18.01c0 .952.77 1.723 1.722 1.723h23.155zm-7.328-7.51v2.782a.65.65 0 0 1-.65.65h-7.197a.65.65 0 0 1-.65-.65v-2.783a5.848 5.848 0 1 1 8.497 0zm-6.231-4.415a1.2 1.2 0 1 1 0 2.399 1.2 1.2 0 0 1 0-2.399zm3.819 0a1.2 1.2 0 1 1-.001 2.399 1.2 1.2 0 0 1 0-2.399z"/></svg>