<svg viewBox="0 0 20 20" xmlns="http://www.w3.org/2000/svg" fill-rule="evenodd" clip-rule="evenodd" stroke-linejoin="round" stroke-miterlimit="1.414"><path d="M7.832.003c.298.037.5.099.75.442l1.954 2.93c2.181 0 4.315-.067 6.506.002 1.555.069 2.928 1.427 2.958 3.035.022 3.517.022 7.034 0 10.551-.03 1.578-1.378 3.005-3.037 3.037-4.642.029-9.284.029-13.926 0-1.58-.03-3.005-1.379-3.036-3.037-.03-4.642-.03-9.284 0-13.926C.031 1.444 1.401.011 3.073 0H7.75l.082.003zM3.08 2c-.565.004-1.069.495-1.079 1.062-.03 4.63-.088 9.261 0 13.89A1.112 1.112 0 0 0 3.062 18c4.63.029 9.261.087 13.89 0 .553-.018 1.038-.505 1.048-1.062.022-3.505.067-7.011 0-10.515a1.113 1.113 0 0 0-1.062-1.048H10s-.515-.01-.832-.445L7.215 2H3.08z"/></svg>