<svg width="21" height="30" viewBox="0 0 21 30" xmlns="http://www.w3.org/2000/svg"><title>Combined Shape</title><path d="M4.215 15.85H0v-1.7h4.215L15.28.319A.85.85 0 0 1 15.944 0h4.623v1.7h-4.215L5.712 15l3.124 3.906-1.327 1.062-3.294-4.118zm12.137-1.7h4.215v1.7h-4.215L5.287 29.68a.85.85 0 0 1-.663.32H0v-1.7h4.215L14.855 15l-3.125-3.906 1.327-1.062 3.295 4.118zM0 1.7V0h4.623a.85.85 0 0 1 .664.319l3.55 4.437-1.328 1.062L4.215 1.7H0zm20.567 26.6V30h-4.623a.85.85 0 0 1-.664-.32l-3.55-4.436 1.327-1.062 3.295 4.118h4.215z"/></svg>