<svg width="28" height="30" viewBox="0 0 28 30" xmlns="http://www.w3.org/2000/svg"><title>Combined Shape</title><path d="M.85 5.146h18.56a2.871 2.871 0 0 1 2.872 2.87v21.135a.85.85 0 0 1-.85.85H.85a.85.85 0 0 1-.85-.85V5.995c0-.47.38-.85.85-.85zM1.7 28.3h18.882V8.017c0-.647-.525-1.171-1.172-1.171H1.7V28.3zM3.86 1.7V0h20.696a2.871 2.871 0 0 1 2.871 2.871v24.556h-1.7V2.871a1.17 1.17 0 0 0-1.17-1.171H3.858zm1.286 11.577v-1.7h11.99v1.7H5.147zm0 5.146v-1.7h11.99v1.7H5.147zm0 5.145v-1.7h6.845v1.7H5.146z"/></svg>