<svg width="29" height="29" viewBox="0 0 29 29" xmlns="http://www.w3.org/2000/svg"><title>Combined Shape</title><path d="M6.965 21.21V6.932h14.278V21.21H6.965zm12.578-1.7V8.632H8.665V19.51h10.878zm-.76-14.322h-1.7V0h1.7v5.188zm-3.829 0h-1.7V0h1.7v5.188zm-3.829 0h-1.7V0h1.7v5.188zM18.784 28.3h-1.7v-5.188h1.7V28.3zm-3.829 0h-1.7v-5.188h1.7V28.3zm-3.829 0h-1.7v-5.188h1.7V28.3zM28.3 9.393v1.7h-5.188v-1.7H28.3zm0 3.828v1.7h-5.188v-1.7H28.3zm0 3.829v1.7h-5.188v-1.7H28.3zM5.188 9.393v1.7H0v-1.7h5.188zm0 3.828v1.7H0v-1.7h5.188zm0 3.829v1.7H0v-1.7h5.188z"/></svg>