<svg width="32" height="36" viewBox="0 0 32 36" xmlns="http://www.w3.org/2000/svg"><title>Artboard Copy 285</title><path d="M27.025 25.428v1.886a.75.75 0 0 1-.75.75h-2.4a.75.75 0 0 1-.75-.75v-2.8a1.95 1.95 0 0 1 3.031-1.623c.02-.25.029-.53.029-.85 0-.126 0-.23-.003-.46a44.546 44.546 0 0 1-.003-.46v-5.3l-4.228-2.964c-.326.134-.747.284-1.258.433-3.088.898-6.682.934-10.546-.433l-4.326 3.9v4.363c0 5.598 4.582 10.18 10.179 10.18.947 0 1.608-.067 2.325-.256v-4.53c0-.856.694-1.55 1.55-1.55h1.6a.75.75 0 1 1 0 1.5h-1.6a.05.05 0 0 0-.05.05v7.2c0 .028.022.05.05.05h10.4a.05.05 0 0 0 .05-.05v-7.2a.05.05 0 0 0-.05-.05h-1.6a.75.75 0 1 1 0-1.5h1.6c.856 0 1.55.694 1.55 1.55v7.2a1.55 1.55 0 0 1-1.55 1.55h-10.4a1.55 1.55 0 0 1-1.55-1.55v-.923c-.711.151-1.42.21-2.325.21-6.536 0-11.879-5.344-11.879-11.88v-6.242C4.121 8.344 9.465 3 16 3c6.535 0 11.879 5.344 11.879 11.88v6.24c0 .121 0 .218.003.445l.003.478c-.001 1.57-.185 2.538-.86 3.385zm-.915-11.731C25.52 8.652 21.197 4.7 16 4.7c-5.456 0-9.949 4.356-10.17 9.76l3.56-3.21a.85.85 0 0 1 .872-.162c3.68 1.408 7.073 1.408 9.956.57.415-.121.78-.25 1.088-.377.179-.073.295-.128.344-.153a.85.85 0 0 1 .88.058l3.58 2.511zM15.216 25.93a8.43 8.43 0 0 1-1.537.546 4.61 4.61 0 0 1-1.054.135.85.85 0 0 1 0-1.7c.19 0 .413-.03.66-.089.378-.09.794-.241 1.224-.438a10.327 10.327 0 0 0 1.036-.549.85.85 0 0 1 1.028.091c.108.099.394.288.873.49.08.035.165.068.251.1a.85.85 0 0 1-.59 1.595 7.56 7.56 0 0 1-.326-.13 6.51 6.51 0 0 1-.828-.418 11.51 11.51 0 0 1-.737.367zm11.059 4.534a.75.75 0 1 1 0-1.5h2.4a.75.75 0 1 1 0 1.5h-2.4zm0 2.4a.75.75 0 1 1 0-1.5h1.829a.75.75 0 1 1 0 1.5h-1.829zm-4.8 0a.75.75 0 0 1-.75-.75v-2.4a.75.75 0 0 1 .75-.75h2.4a.75.75 0 0 1 .75.75v2.4a.75.75 0 0 1-.75.75h-2.4zm1.65-1.5v-.9h-.9v.9h.9zm2.4-6.85a.45.45 0 1 0-.9 0v2.05h.9v-2.05z"/></svg>