<svg width="28" height="36" viewBox="0 0 28 36" xmlns="http://www.w3.org/2000/svg"><title>Artboard Copy 281</title><path d="M22.983 23.97c.026.129.04.262.04.398v2.8a.75.75 0 0 1-.75.75h-2.4a.75.75 0 0 1-.75-.75v-2.8a1.95 1.95 0 0 1 2.452-1.885c.091-.492.148-.956.148-1.29v-6.366c-4.225-.032-7.878-.65-10.672-1.48a.705.705 0 0 0-.49.03L6.194 15.31v5.883c0 4.269 3.497 7.765 7.765 7.765.122 0 .243-.003.365-.008v-2.582c0-.856.694-1.55 1.55-1.55h1.6a.75.75 0 1 1 0 1.5h-1.6a.05.05 0 0 0-.05.05v7.2c0 .028.022.05.05.05h10.4a.05.05 0 0 0 .05-.05v-7.2a.05.05 0 0 0-.05-.05h-1.6a.75.75 0 1 1 0-1.5h.2a116.38 116.38 0 0 1-.302-5.876 106.1 106.1 0 0 1-.041-3.51l.001-.159c0-5.813-4.76-10.574-10.573-10.574-5.813 0-10.573 4.76-10.573 10.598l-.013.372a162.871 162.871 0 0 1-.263 4.803 162.236 162.236 0 0 1-1.096 10.78c.275-.02.567-.047.873-.08 1.413-.154 2.824-.423 4.131-.833.83-.26 1.589-.568 2.261-.926-2.853-1.635-4.785-4.712-4.785-8.22v-6.99L5 13.979l4.876-2.156a2.406 2.406 0 0 1 1.66-.106c2.829.84 6.624 1.458 11.028 1.408l.86-.01v8.078c0 .747-.188 1.825-.44 2.777zm3.598.878a1.55 1.55 0 0 1 1.242 1.52v7.2a1.55 1.55 0 0 1-1.55 1.55h-10.4a1.55 1.55 0 0 1-1.55-1.55v-2.917a9.45 9.45 0 0 1-3.141-.41c-1.028.717-2.261 1.283-3.657 1.72-1.424.447-2.94.736-4.455.9A23.936 23.936 0 0 1 1.033 33a.85.85 0 0 1-.847-.973c.557-3.825.957-7.793 1.227-11.673a161.179 161.179 0 0 0 .26-4.747l.012-.333C1.685 8.52 7.205 3 13.958 3c6.752 0 12.273 5.52 12.273 12.285l-.001.159a116.283 116.283 0 0 0 .35 9.404zm-4.308 5.47a.75.75 0 1 1 0-1.5h2.4a.75.75 0 1 1 0 1.5h-2.4zm0 2.4a.75.75 0 1 1 0-1.5h1.83a.75.75 0 1 1 0 1.5h-1.83zm-4.8 0a.75.75 0 0 1-.75-.75v-2.4a.75.75 0 0 1 .75-.75h2.4a.75.75 0 0 1 .75.75v2.4a.75.75 0 0 1-.75.75h-2.4zm1.65-1.5v-.9h-.9v.9h.9zm2.4-6.85a.45.45 0 1 0-.9 0v2.05h.9v-2.05z"/></svg>