<svg width="34" height="34" viewBox="0 0 34 34" xmlns="http://www.w3.org/2000/svg"><title>Artboard Copy 277</title><path d="M28.537 22.401c.096.23.15.484.15.749v2.8a.75.75 0 0 1-.75.75h-2.4a.75.75 0 0 1-.75-.75v-2.8a1.95 1.95 0 0 1 2.212-1.932c.04-.362.06-.728.06-1.097V13.88c0-5.596-4.583-10.179-10.18-10.179C11.283 3.7 6.7 8.283 6.7 13.88v6.241c0 5.597 4.583 10.18 10.18 10.18 1.066 0 2.11-.167 3.106-.489V25.15c0-.856.694-1.55 1.55-1.55h1.6a.75.75 0 1 1 0 1.5h-1.6a.05.05 0 0 0-.05.05v7.2c0 .028.022.05.05.05h10.4a.05.05 0 0 0 .05-.05v-7.2a.05.05 0 0 0-.05-.05h-1.6a.75.75 0 1 1 0-1.5h1.6c.856 0 1.55.694 1.55 1.55v7.2a1.55 1.55 0 0 1-1.55 1.55h-10.4a1.55 1.55 0 0 1-1.55-1.55v-.765A11.797 11.797 0 0 1 16.88 32C10.344 32 5 26.657 5 20.121V13.88C5 7.344 10.344 2 16.88 2c6.535 0 11.878 5.344 11.878 11.88v6.241c0 .773-.074 1.535-.22 2.28zm-.6 6.699a.75.75 0 1 1 0-1.5h2.4a.75.75 0 1 1 0 1.5h-2.4zm0 2.4a.75.75 0 1 1 0-1.5h1.828a.75.75 0 1 1 0 1.5h-1.829zm-4.801 0a.75.75 0 0 1-.75-.75v-2.4a.75.75 0 0 1 .75-.75h2.4a.75.75 0 0 1 .75.75v2.4a.75.75 0 0 1-.75.75h-2.4zm1.65-1.5v-.9h-.9v.9h.9zm2.4-6.85a.45.45 0 1 0-.9 0v2.05h.9v-2.05z"/></svg>