<svg width="30" height="30" viewBox="0 0 30 30" xmlns="http://www.w3.org/2000/svg"><title>Combined Shape</title><path d="M5.66 24.014H.85a.85.85 0 0 1-.85-.85V9.957c0-.47.38-.85.85-.85h28.3c.47 0 .85.38.85.85v13.207c0 .47-.38.85-.85.85h-4.81v4.81c0 .47-.38.85-.85.85H6.51a.85.85 0 0 1-.85-.85v-4.81zm18.68-1.7h3.96V10.807H1.7v11.507h3.96v-3.81a1.85 1.85 0 0 1 1.85-1.85h14.98a1.85 1.85 0 0 1 1.85 1.85v3.81zM7.36 2.026v5.66h-1.7v-6.51c0-.47.38-.85.85-.85h16.98c.47 0 .85.38.85.85v6.51h-1.7v-5.66H7.36zm15.28 16.478a.15.15 0 0 0-.15-.15H7.51a.15.15 0 0 0-.15.15v9.47h15.28v-9.47z"/></svg>