<svg width="30" height="30" viewBox="0 0 30 30" xmlns="http://www.w3.org/2000/svg"><title>Combined Shape</title><path d="M11.008 1.7H4.115A2.415 2.415 0 0 0 1.7 4.115v21.77A2.415 2.415 0 0 0 4.115 28.3h21.771a2.414 2.414 0 0 0 2.414-2.415V9.421a2.414 2.414 0 0 0-2.414-2.415H15a.85.85 0 0 1-.707-.379L11.008 1.7zm4.447 3.606h10.431A4.114 4.114 0 0 1 30 9.421v16.464A4.114 4.114 0 0 1 25.886 30H4.115A4.115 4.115 0 0 1 0 25.885V4.115A4.115 4.115 0 0 1 4.115 0h7.348a.85.85 0 0 1 .707.379l3.285 4.927z"/></svg>