<svg width="30" height="30" viewBox="0 0 30 30" xmlns="http://www.w3.org/2000/svg"><title>Combined Shape</title><path d="M15.535 16.084V29.15h-1.7V16.084a2.373 2.373 0 0 1 .85-4.585 2.371 2.371 0 0 1 .85 4.585zM10.42 18.93l.643.557-1.113 1.285-.642-.556a8.22 8.22 0 1 1 10.918-.147l-.628.573-1.146-1.256.628-.573a6.52 6.52 0 1 0-8.66.117zm-4.484 5.35l.628.573-1.146 1.255-.628-.572A14.646 14.646 0 0 1 0 14.685C0 6.575 6.575 0 14.684 0c8.11 0 14.685 6.574 14.685 14.685 0 4.182-1.759 8.084-4.788 10.848l-.628.573-1.146-1.255.628-.573a12.945 12.945 0 0 0 4.234-9.593C27.67 7.513 21.856 1.7 14.684 1.7 7.514 1.7 1.7 7.513 1.7 14.685c0 3.7 1.555 7.149 4.236 9.595z"/></svg>