<svg width="14" height="30" viewBox="0 0 14 30" xmlns="http://www.w3.org/2000/svg"><title>Combined Shape</title><path d="M9.56 5.88H4.287v3.977h7.535l1.432 19.914-1.696.122-.798-11.099-7.985 5.412-.334 5.676-1.697-.1L1.917 9.857h.67V5.88h-.593v-.85a4.924 4.924 0 0 1 9.846 0v.85h-.58v3.962h-1.7V5.88zM2.901 22.067l7.718-5.231-.267-3.719-7.21 5.036-.01-.014-.23 3.928zm.357-6.068l6.36-4.442H3.52l-.26 4.442zM6.917 1.807a3.225 3.225 0 0 0-3.11 2.373h6.22a3.225 3.225 0 0 0-3.11-2.373zm-.84 23.108a.85.85 0 1 1 1.7 0v2.917a.85.85 0 0 1-1.7 0v-2.917z"/></svg>