<svg width="25" height="30" viewBox="0 0 25 30" xmlns="http://www.w3.org/2000/svg"><title>Combined Shape</title><path d="M21.81 30H2.758A2.764 2.764 0 0 1 0 27.242V2.758A2.764 2.764 0 0 1 2.758 0H21.81c1.52 0 2.758 1.24 2.758 2.758v24.484A2.763 2.763 0 0 1 21.81 30zm0-1.7c.58 0 1.058-.478 1.058-1.058V2.758c0-.58-.478-1.058-1.058-1.058H2.758c-.58 0-1.058.478-1.058 1.058v24.484c0 .58.479 1.058 1.058 1.058H21.81zM4.727 25.17v-1.7h14.727v1.7H4.727zm8.427-18.877v-1.7h6.068v1.7h-6.068zM4.727 20.788v-1.7h14.37v1.7H4.727z"/></svg>