<svg width="30" height="34" viewBox="0 0 30 34" xmlns="http://www.w3.org/2000/svg"><title>Combined Shape</title><path d="M10.467 26.625v1.7H2.599A2.604 2.604 0 0 1 0 25.725V3.579a2.604 2.604 0 0 1 2.599-2.6h17.226a2.604 2.604 0 0 1 2.6 2.6v4.647h-1.701V3.578a.904.904 0 0 0-.899-.9H2.6a.904.904 0 0 0-.899.9v22.148c0 .492.406.899.9.899h7.867zM5.7 7.987v-1.7h2.52v1.7H5.7zm4.353.057v-1.7h2.52v1.7h-2.52zm4.238 0v-1.7h2.52v1.7h-2.52zM5.7 11.271v-1.7h2.52v1.7H5.7zm4.353.057v-1.7h2.52v1.7h-2.52zM5.7 14.555v-1.7h2.52v1.7H5.7zm4.353.057v-1.7h2.52v1.7h-2.52zM5.7 17.839v-1.7h2.52v1.7H5.7zm0 3.284v-1.7h2.52v1.7H5.7zm4.423-3.203v-1.7h2.52v1.7h-2.52zm0 3.284v-1.7h2.52v1.7h-2.52zm11.51.083a5.417 5.417 0 1 1 .002-10.835 5.417 5.417 0 0 1-.001 10.835zm0-1.7a3.717 3.717 0 1 0 0-7.435 3.717 3.717 0 0 0 0 7.435zm0 11.733l.001 1.7-6.285.001a2.18 2.18 0 0 1-2.179-2.18v-4.049a3.508 3.508 0 0 1 3.509-3.509h9.812A3.508 3.508 0 0 1 30 26.793v5.378h-1.7v-5.379c0-1-.81-1.809-1.809-1.809h-9.812c-1 0-1.809.81-1.809 1.81v4.048c0 .266.214.48.479.48h6.285z"/></svg>