<svg width="12" height="14" viewBox="0 0 12 14" xmlns="http://www.w3.org/2000/svg"><title>Combined Shape</title><path d="M4.192 11.032c.168.29.265.627.265.986A1.992 1.992 0 0 1 2.454 14 1.992 1.992 0 0 1 .45 12.018c0-1.097.899-1.983 2.003-1.983.229 0 .449.038.654.108l1.85-2.048c.147-.177.613-.733.7-.84.164-.204.252-.33.305-.434.09-.177.117-.34.124-1.016a8.421 8.421 0 0 1-.012-.464V3.83A1.983 1.983 0 0 1 4.8 1.983C4.8.886 5.7 0 6.804 0s2.004.886 2.004 1.983c0 .859-.55 1.588-1.32 1.864v1.931c.035.582.155.948.397 1.338.14.227.915 1.261 1.1 1.526.017.025.002.007.14.183a2.03 2.03 0 0 1 .42-.044c1.104 0 2.004.886 2.004 1.983 0 1.098-.9 1.983-2.004 1.983a1.993 1.993 0 0 1-2.004-1.983c0-.445.148-.855.397-1.185a4.149 4.149 0 0 1-.102-.136c-.129-.186-.724-.981-1.015-1.401a9.51 9.51 0 0 1-.075.093c-.096.119-.567.68-.727.874l-1.827 2.023zm2.612-8.466a.594.594 0 0 0 .604-.583.594.594 0 0 0-.604-.583.594.594 0 0 0-.604.583c0 .32.268.583.604.583zm2.741 8.78a.594.594 0 0 0 .604-.582.594.594 0 0 0-.604-.583.594.594 0 0 0-.604.583c0 .32.268.583.604.583zM2.454 12.6a.593.593 0 0 0 .603-.582.593.593 0 0 0-.603-.583.593.593 0 0 0-.603.583c0 .32.267.582.603.582z"/></svg>