<svg width="30" height="22" viewBox="0 0 30 22" xmlns="http://www.w3.org/2000/svg"><title>Combined Shape</title><path d="M9.74 19.37l.792-.31.62 1.583-.791.31a5.005 5.005 0 0 1-5.367-1.122l-3.528-3.527a5.007 5.007 0 0 1 0-7.08L9.108 1.58a5.008 5.008 0 0 1 7.08 0l3.528 3.528a5.007 5.007 0 0 1 0 7.08L15 16.905l-1.202-1.202 4.716-4.716a3.307 3.307 0 0 0 0-4.676l-3.527-3.527a3.308 3.308 0 0 0-4.677 0l-7.642 7.642a3.307 3.307 0 0 0 0 4.676l3.528 3.527a3.305 3.305 0 0 0 3.545.741zM20.26 2.63l-.792.31-.62-1.583.791-.31a5.005 5.005 0 0 1 5.367 1.122l3.528 3.527a5.007 5.007 0 0 1 0 7.08l-7.642 7.643a5.008 5.008 0 0 1-7.08 0l-3.528-3.528a5.007 5.007 0 0 1 0-7.08L15 5.095l1.202 1.202-4.716 4.716a3.307 3.307 0 0 0 0 4.676l3.527 3.527a3.308 3.308 0 0 0 4.677 0l7.642-7.642a3.307 3.307 0 0 0 0-4.676l-3.528-3.527a3.305 3.305 0 0 0-3.545-.741z"/></svg>