<svg width="14" height="10" viewBox="0 0 14 10" xmlns="http://www.w3.org/2000/svg"><title>Combined Shape</title><path d="M4.688 8.348l.99.99c-.84.84-2.197.851-3.032.016L.619 7.33a2.144 2.144 0 0 1 .018-3.032L4.238.695A2.144 2.144 0 0 1 7.271.678l2.025 2.026a2.143 2.143 0 0 1-.016 3.032L7.736 7.28l-.99-.99L8.29 4.746a.743.743 0 0 0 .016-1.052L6.28 1.668a.744.744 0 0 0-1.052.017L1.626 5.287A.744.744 0 0 0 1.61 6.34l2.026 2.025a.743.743 0 0 0 1.052-.016zm4.624-6.696l-.99-.99a2.143 2.143 0 0 1 3.032-.016l2.027 2.025a2.144 2.144 0 0 1-.018 3.032L9.762 9.305c-.84.84-2.197.851-3.033.017L4.704 7.296a2.143 2.143 0 0 1 .016-3.032L6.264 2.72l.99.99L5.71 5.254a.743.743 0 0 0-.016 1.052L7.72 8.332a.744.744 0 0 0 1.052-.017l3.603-3.602a.744.744 0 0 0 .016-1.052l-2.026-2.025a.743.743 0 0 0-1.052.016z"/></svg>