<svg width="16" height="18" viewBox="0 0 16 18" xmlns="http://www.w3.org/2000/svg"><title>Combined Shape</title><path d="M5.593 14.209c.226.375.356.813.356 1.282C5.949 16.88 4.81 18 3.413 18 2.015 18 .877 16.88.877 15.491c0-1.389 1.138-2.509 2.536-2.509.303 0 .593.053.863.15l2.42-2.679c.19-.23.792-.95.905-1.088.215-.266.33-.431.401-.571.122-.238.158-.454.166-1.342-.01-.189-.015-.388-.015-.598V4.86a2.511 2.511 0 0 1-1.65-2.352C6.503 1.121 7.642 0 9.04 0s2.537 1.12 2.537 2.51c0 1.1-.715 2.032-1.707 2.372v1.972c0 .207 0 .395-.002.566.048.764.206 1.246.524 1.76.183.296 1.186 1.634 1.428 1.981.018.026.08.107.2.262.182-.041.372-.063.566-.063 1.398 0 2.537 1.12 2.537 2.509 0 1.39-1.138 2.51-2.537 2.51-1.398 0-2.537-1.12-2.537-2.51 0-.578.197-1.11.528-1.533a5.307 5.307 0 0 1-.155-.208c-.176-.252-1.001-1.355-1.357-1.874-.044.057-.092.117-.143.18-.123.152-.731.878-.938 1.128L5.593 14.21zM9.04 3.319a.824.824 0 0 0 .837-.81.823.823 0 0 0-.837-.809.823.823 0 0 0-.837.81c0 .444.371.81.837.81zm3.546 11.36a.824.824 0 0 0 .837-.81.823.823 0 0 0-.837-.81.823.823 0 0 0-.837.81c0 .444.372.81.837.81zM3.413 16.3a.823.823 0 0 0 .836-.809.823.823 0 0 0-.836-.809.823.823 0 0 0-.836.809c0 .443.371.809.836.809z"/></svg>