<svg width="24" height="30" viewBox="0 0 24 30" xmlns="http://www.w3.org/2000/svg"><title>Combined Shape</title><path d="M7.025 23.99c.494.63.788 1.42.788 2.28 0 2.064-1.694 3.73-3.777 3.73-2.084 0-3.777-1.666-3.777-3.73s1.693-3.73 3.777-3.73a3.81 3.81 0 0 1 1.664.38l4.52-5c.324-.395 1.373-1.647 1.573-1.894.398-.492.621-.81.769-1.1.267-.526.34-.953.355-2.625a18.192 18.192 0 0 1-.027-1.028v-3.92c-1.643-.404-2.864-1.87-2.864-3.622 0-2.064 1.695-3.731 3.78-3.731 2.084 0 3.778 1.667 3.778 3.731 0 1.787-1.27 3.277-2.963 3.645v3.897c0 .367 0 .697-.003.995.087 1.445.39 2.384 1.002 3.374.335.542 2.092 2.886 2.493 3.461.06.088.184.248.63.818a3.818 3.818 0 0 1 1.22-.199c2.084 0 3.778 1.668 3.778 3.731 0 2.065-1.694 3.732-3.779 3.732-2.084 0-3.779-1.667-3.779-3.732 0-1.03.422-1.96 1.104-2.634a18.702 18.702 0 0 1-.57-.744c-.361-.52-2.16-2.92-2.543-3.54a9.345 9.345 0 0 1-.288-.498 9.99 9.99 0 0 1-.772 1.059c-.21.26-1.266 1.52-1.607 1.933l-4.482 4.96zm6.78-18.227c1.152 0 2.08-.913 2.08-2.032S14.956 1.7 13.804 1.7c-1.151 0-2.079.912-2.079 2.031 0 1.12.928 2.032 2.08 2.032zm6.157 19.722c1.152 0 2.08-.912 2.08-2.032 0-1.118-.928-2.03-2.08-2.03-1.151 0-2.079.912-2.079 2.03 0 1.12.928 2.032 2.08 2.032zM4.036 28.3c1.15 0 2.077-.912 2.077-2.03 0-1.118-.927-2.03-2.077-2.03-1.151 0-2.077.912-2.077 2.03 0 1.118.926 2.03 2.077 2.03z"/></svg>