<svg width="30" height="30" viewBox="0 0 30 30" xmlns="http://www.w3.org/2000/svg"><title>Combined Shape</title><path d="M25.885 7.355c-.265.104-.555.207-.865.31a28.395 28.395 0 0 1-2.164.613 11.295 11.295 0 0 1-.85.784 6.24 6.24 0 0 1-1.147.768c-.5.25-.983.369-1.455.303l-.08-.013c-.617-.105-1.219-.417-1.812-.867a7.007 7.007 0 0 1-.931-.839l-.231-.255.011-.344.004-.14c.007-.335.005-.701-.01-1.04a8.77 8.77 0 0 0-.02-.32 3.66 3.66 0 0 1-.445.088c-.53.068-1.01-.018-1.42-.347-.436-.348-.627-.853-.667-1.444a3.775 3.775 0 0 1 .001-.51 6.592 6.592 0 0 1-.166-.074c-.603-.284-.993-.565-1.166-1.039-.124-.34-.103-.667.018-1.053-1.536.294-2.98.852-4.28 1.625.1.132.197.273.292.422A9.64 9.64 0 0 1 9.158 5.2c.146.118.311.27.478.452.289.315.514.654.645 1.026.072.204.117.42.14.647a4.428 4.428 0 0 1-.051 1.197 11.38 11.38 0 0 1 .32 1.248c.148.779.162 1.34-.098 1.794-.236.413-.643.701-1.19.955a6.54 6.54 0 0 1-.693.273 3.82 3.82 0 0 1-.494.543 3.248 3.248 0 0 1-1.689.823c-.48.05-.767.327-.767.843 0 .173.055.43.16.738.079.229.182.477.303.735a11.064 11.064 0 0 0 .383.74c.152.081.326.182.503.296.205.132.383.264.532.4.196.177.342.36.43.582.084.208.141.46.188.767a9.502 9.502 0 0 1 .074.645c.085.167.184.383.283.634.18.46.309.921.36 1.37.069.6-.003 1.15-.267 1.626-.188.338-.491.552-.906.747a4.81 4.81 0 0 1-.377.158l-.668 1A13.243 13.243 0 0 0 15 28.3c7.346 0 13.3-5.954 13.3-13.3a13.24 13.24 0 0 0-2.415-7.645zm-1.13-1.395a13.264 13.264 0 0 0-10.319-4.248c-.03.063-.065.131-.102.205a6.732 6.732 0 0 0-.115.25 3.09 3.09 0 0 0-.08.206c.062.037.138.076.223.116.237.112.484.202.636.25l.77.24-.2.781a2.36 2.36 0 0 0-.034.177 2.511 2.511 0 0 0-.035.559c.01.154.037.23.033.233.002-.002.035.001.14-.012a2.78 2.78 0 0 0 .364-.082l.208-.056a3.69 3.69 0 0 1 .238-.056c.258-.05.477-.057.718.024.708.237.793.69.853 2.01.014.312.018.635.015.944.128.12.289.26.47.397.396.3.773.495 1.072.546.106.016.268-.024.489-.135.248-.124.53-.318.827-.56a8.836 8.836 0 0 0 .855-.807l.18-.2.263-.06c.138-.032.385-.093.705-.176a26.742 26.742 0 0 0 1.826-.546zM5.481 24.288l.864-1.296.3-.086c.1-.029.272-.089.433-.165.112-.052.18-.1.144-.034.069-.124.096-.33.064-.606a3.866 3.866 0 0 0-.254-.943 5.01 5.01 0 0 0-.274-.594l-.097-.172-.012-.197a7.948 7.948 0 0 0-.072-.681 2.59 2.59 0 0 0-.078-.373c-.072-.039-.18-.118-.311-.203a5.962 5.962 0 0 0-.566-.32l-.222-.109-.129-.21a12.745 12.745 0 0 1-.588-1.103 9 9 0 0 1-.372-.908c-.161-.47-.252-.898-.252-1.288 0-1.442.992-2.397 2.234-2.526.29-.05.55-.189.778-.397.183-.167.303-.332.347-.414l.175-.324.356-.095c.175-.046.462-.141.738-.269.25-.116.415-.232.43-.256-.019.03-.026-.258-.097-.63a10.661 10.661 0 0 0-.33-1.243l-.081-.235.059-.24c.006-.028.02-.093.034-.185.036-.237.05-.48.028-.688a1.107 1.107 0 0 0-.052-.255 1.415 1.415 0 0 0-.296-.444 2.66 2.66 0 0 0-.4-.36l-.206-.144-.095-.232A7.974 7.974 0 0 0 7.07 4.9a5.041 5.041 0 0 0-.265-.377A13.277 13.277 0 0 0 1.7 15c0 3.614 1.441 6.891 3.78 9.288zM15 0c8.284 0 15 6.716 15 15 0 8.284-6.716 15-15 15-8.284 0-15-6.716-15-15C0 6.716 6.716 0 15 0zm8.501 13.698c.331.139.662.29.975.453.639.333 1.122.663 1.428 1.036.104.127.19.262.25.408.498 1.18-.602 3.602-1.77 4.185-.787.393-1.41.91-1.643 1.276-.028.043-.36.938-.463 1.176-.391.913-.828 1.516-1.52 1.787-.105.041-.291.149-.564.329-.17.112-.838.572-.919.626-.257.174-.477.317-.69.448-1.066.652-1.873.942-2.645.73-1.812-.501-1.983-3.867-.85-5.623.057-.089.08-.377.027-.81a8.663 8.663 0 0 0-.111-.65c-.013-.062-.083-.4-.1-.489a3.816 3.816 0 0 1-.07-.462c.007.109-.01.078-.073.007a7.772 7.772 0 0 0-.527-.522c-.908-.856-1.13-1.116-1.132-1.72 0-.525.274-1.12.765-1.894.108-.172.226-.348.352-.53a21.85 21.85 0 0 1 1.007-1.332l.156-.188.232-.077a14.107 14.107 0 0 1 1.181-.329c.583-.132 1.002-.18 1.356-.09.211.052.446.147.717.278a12.08 12.08 0 0 1 .746.402l.259.03c.34.042.68.093 1.001.154.571.11 1.023.238 1.355.414l.175.123.808.737c.088.035.185.074.287.117zm.19 1.962a11.499 11.499 0 0 0-1.129-.509l-.077-.03c-.016-.006-.02-.007-.209-.277l-.09.1-.83-.758a4.726 4.726 0 0 0-.8-.209 13.67 13.67 0 0 0-1.29-.18l-.2-.018-.171-.106a9.994 9.994 0 0 0-.767-.423 2.435 2.435 0 0 0-.387-.159s-.254.03-.57.1a13.69 13.69 0 0 0-.788.211 22.643 22.643 0 0 0-.766 1.028c-.113.162-.218.32-.313.469-.294.464-.474.843-.497.961.001-.101.015-.081.058-.031.106.124.237.254.52.52.907.854 1.105 1.08 1.146 1.646.003.04.017.126.042.257l.1.48c.06.298.101.537.13.777.1.797.047 1.426-.284 1.94-.606.94-.504 2.96-.127 3.063.156.043.63-.126 1.306-.54.188-.115.387-.245.625-.406.069-.046.749-.514.935-.637.366-.242.632-.396.88-.493.138-.054.354-.352.578-.874.033-.076.45-1.197.59-1.419.414-.65 1.274-1.362 2.319-1.884.407-.203 1.083-1.687.965-2-.122-.142-.45-.366-.899-.6z"/></svg>