<svg width="14" height="14" viewBox="0 0 14 14" xmlns="http://www.w3.org/2000/svg"><title>Combined Shape</title><path d="M7 .2a6.8 6.8 0 1 1-.001 13.601A6.8 6.8 0 0 1 7 .2zm0 1a5.8 5.8 0 1 0 .001 11.601A5.8 5.8 0 0 0 7 1.2zM3.011 8.856a2.546 2.546 0 0 0-.24-.136l-.13-.064-.076-.124a5.36 5.36 0 0 1-.438-.918A1.914 1.914 0 0 1 2.007 7c0-.708.492-1.182 1.096-1.245a.56.56 0 0 0 .284-.146.692.692 0 0 0 .13-.152l.102-.192.21-.055c.072-.02.194-.06.31-.113.09-.042.146-.081.135-.062-.027.049-.03-.06-.056-.198a4.638 4.638 0 0 0-.143-.537l-.048-.14.035-.141a1.121 1.121 0 0 0 .025-.346.38.38 0 0 0-.017-.087.519.519 0 0 0-.106-.155 1.067 1.067 0 0 0-.158-.142l-.122-.084-.056-.138a3.337 3.337 0 0 0-.262-.498 1.307 1.307 0 0 0-.275-.33l.595-.804a2.2 2.2 0 0 1 .523.595c.122.19.22.378.29.531a2.5 2.5 0 0 1 .201.193c.14.152.249.316.313.499.036.1.058.207.07.317a2.08 2.08 0 0 1-.02.53c.021.076.045.159.068.25.027.102.05.202.069.299.072.375.078.644-.057.881-.121.212-.32.353-.586.475a2.901 2.901 0 0 1-.284.114c-.057.073-.127.15-.211.228-.218.2-.482.341-.821.398-.156.017-.233.091-.233.255 0 .061.022.164.065.29a4.063 4.063 0 0 0 .278.605c.062.035.131.075.201.12.097.062.181.125.253.19.1.09.175.184.224.306.04.103.067.222.09.367.014.097.025.191.032.272.037.075.078.166.12.272.083.214.143.428.167.64.033.29-.002.56-.134.797-.1.179-.25.285-.457.383a2.256 2.256 0 0 1-.14.06l-.464.695-.832-.554.658-.988.176-.051c.04-.012.11-.036.176-.067.02-.01.033-.018.027 0a.799.799 0 0 0-.003-.161 1.609 1.609 0 0 0-.106-.39 2.12 2.12 0 0 0-.114-.249l-.057-.1-.007-.116a3.49 3.49 0 0 0-.05-.394 1.216 1.216 0 0 0-.1-.07zM8.65 3.741c.162.123.315.202.425.22a.37.37 0 0 0 .142-.049c.102-.05.22-.132.346-.235.16-.13.293-.263.367-.346l.106-.118.154-.035a11.758 11.758 0 0 0 .998-.278c.228-.076.422-.15.568-.22l.433.901a5.84 5.84 0 0 1-.688.268 12.73 12.73 0 0 1-.938.268 4.59 4.59 0 0 1-.366.333 2.9 2.9 0 0 1-.532.357c-.243.121-.48.18-.72.147l-.037-.006c-.298-.05-.582-.198-.861-.409a3.232 3.232 0 0 1-.432-.389L7.477 4l.007-.203.002-.06a7.21 7.21 0 0 0-.005-.455 1.536 1.536 0 0 1-.07.011c-.265.034-.51-.01-.724-.18-.224-.18-.32-.435-.341-.728a1.716 1.716 0 0 1-.004-.16c-.298-.14-.49-.278-.582-.532-.089-.245-.04-.461.086-.754A3.75 3.75 0 0 1 5.91.796c.09-.183.106-.218.11-.23l.952.306a2.795 2.795 0 0 1-.16.356 3.156 3.156 0 0 0-.043.094c.099.046.202.084.265.103l.452.141-.117.46a1.068 1.068 0 0 0-.028.264c.024-.005.052-.012.087-.022.09-.025.148-.04.207-.052a.704.704 0 0 1 .382.014c.394.133.432.334.462 1.006.006.123.008.25.007.373.047.041.102.087.162.132zm2.626 2.773c.297.155.524.31.673.49a.861.861 0 0 1 .13.214c.248.589-.272 1.732-.846 2.02-.332.165-.592.38-.683.523-.004.006-.147.39-.197.507-.186.434-.396.724-.744.862a1.634 1.634 0 0 0-.229.134l-.408.278a8.144 8.144 0 0 1-.31.2c-.503.31-.887.447-1.274.34-.91-.25-.992-1.846-.45-2.687a.94.94 0 0 0-.005-.28 3.748 3.748 0 0 0-.048-.28l-.045-.218a1.806 1.806 0 0 1-.033-.219c.007.092-.094-.023-.229-.15-.442-.416-.542-.534-.542-.854 0-.266.128-.545.359-.91a9.455 9.455 0 0 1 .615-.842l.091-.11.137-.045a6.448 6.448 0 0 1 .537-.15c.278-.062.476-.085.66-.039.104.026.216.071.343.133l.11.056c.076.04.146.079.206.113.156.017.35.044.546.082.266.05.476.11.637.196l.104.072.342.313a5.7 5.7 0 0 1 .553.251zm-.461.887a4.921 4.921 0 0 0-.532-.236l-.164-.1-.353-.322a2.257 2.257 0 0 0-.314-.079 6.048 6.048 0 0 0-.563-.08l-.117-.01-.1-.061a4.402 4.402 0 0 0-.248-.14L8.34 6.33a1.092 1.092 0 0 0-.147-.062c.024.006-.078.018-.199.045a4.234 4.234 0 0 0-.307.081 8.849 8.849 0 0 0-.449.626c-.08.127-.14.24-.173.307.04.043.095.097.189.185.44.415.527.512.55.812 0 .012.006.046.016.1l.044.213c.027.135.046.245.06.355.047.382.021.687-.146.946-.232.36-.19 1.162-.125 1.18.025.007.212-.06.486-.228.081-.05.168-.106.272-.177.028-.019.334-.229.418-.284a2.24 2.24 0 0 1 .413-.23c.023-.01.103-.12.19-.325.01-.023.202-.538.273-.65.198-.31.598-.64 1.08-.881.121-.061.372-.6.374-.72a1.71 1.71 0 0 0-.345-.222z"/></svg>