<svg width="32" height="32" viewBox="0 0 32 32" xmlns="http://www.w3.org/2000/svg"><title>Combined Shape</title><path d="M1.85 31.352L.648 30.15 30.15.648l1.202 1.202L1.85 31.352zm0-7.807L.648 22.343 22.343.648l1.202 1.202L1.85 23.545zm0-7.807L.648 14.536 14.536.648l1.202 1.202L1.85 15.738zm0-7.807L.648 6.73 6.729.65l1.202 1.2L1.85 7.931zm7.807 23.421L8.455 30.15 30.15 8.455l1.202 1.202L9.657 31.352zm8.295-.488l-1.202-1.202L29.662 16.75l1.202 1.202-12.912 12.912zm7.319.488l-1.202-1.202 6.08-6.081 1.203 1.202-6.081 6.081z"/></svg>