<svg width="26" height="30" viewBox="0 0 26 30" xmlns="http://www.w3.org/2000/svg"><title>Combined Shape</title><path d="M8.04 2.942V.851A.85.85 0 0 1 9.315.113L13.7 2.63 18.09.113a.85.85 0 0 1 1.273.738v2.734A11.586 11.586 0 0 1 24.7 13.33l-.002.151a103.29 103.29 0 0 0 .068 4.183c.09 2.562.26 5.094.533 7.457.15 1.3.327 2.52.534 3.646a.85.85 0 0 1-.766 1 6.544 6.544 0 0 1-.232.015c-2.099.094-4.662-.21-7.151-1.26a13.023 13.023 0 0 1-2.042-1.078 8.866 8.866 0 0 1-2.508.36 8.867 8.867 0 0 1-2.596-.386c-.965.669-2.12 1.198-3.424 1.606-1.34.42-2.765.692-4.188.847-.498.054-.96.09-1.376.111-.254.013-.437.018-.541.018a.85.85 0 0 1-.847-.972c.522-3.586.898-7.307 1.151-10.946a151.126 151.126 0 0 0 .244-4.452l.011-.31c0-4.435 2.55-8.44 6.473-10.378zm0 1.938a9.901 9.901 0 0 0-4.772 8.463l-.012.35c-.01.281-.024.61-.04.98-.05 1.055-.117 2.24-.207 3.527a152.373 152.373 0 0 1-1.02 10.05c.239-.017.49-.04.753-.07 1.321-.143 2.641-.395 3.864-.778a12.517 12.517 0 0 0 2.028-.82c-2.646-1.555-4.432-4.433-4.432-7.71v-6.591l.506-.224 4.571-2.021a2.304 2.304 0 0 1 1.596-.103c2.656.787 6.206 1.365 10.33 1.319l.86-.01v7.63c0 3.295-1.805 6.186-4.475 7.734.245.124.497.24.755.35 1.258.53 2.611.86 3.989 1.023a16.44 16.44 0 0 0 1.657.114 60.847 60.847 0 0 1-.381-2.778c-.278-2.412-.452-4.988-.543-7.591-.06-1.712-.076-3.176-.069-4.255l.002-.15a9.864 9.864 0 0 0-3.638-7.636V6.4a.85.85 0 0 1-1.273.737L13.7 4.622 9.314 7.138a.85.85 0 0 1-1.273-.737V4.88zm2.351 6.682a.605.605 0 0 0-.422.028l-4.067 1.798v5.485c0 3.975 3.256 7.232 7.232 7.232 3.975 0 7.231-3.257 7.231-7.232v-5.92c-3.945-.035-7.353-.614-9.974-1.39zm4.99-7.936l2.28 1.308V2.318l-2.28 1.308zm-5.64 1.308l2.28-1.308-2.28-1.308v2.616zM8.917 22.34a.85.85 0 1 1 1.24-1.163c.136.146.424.392.829.643 1.602.99 3.321.99 5.173-.69a.85.85 0 1 1 1.143 1.258c-2.466 2.238-5.01 2.238-7.21.878a5.927 5.927 0 0 1-1.175-.926z"/></svg>