<svg width="25" height="30" viewBox="0 0 25 30" xmlns="http://www.w3.org/2000/svg"><title>Combined Shape</title><path d="M2.2 13.757v4.364C2.2 23.718 6.783 28.3 12.38 28.3c5.596 0 10.178-4.582 10.178-10.179v-5.3L18.33 9.857c-.325.134-.747.284-1.258.433-3.088.898-6.681.934-10.546-.433l-4.326 3.9zm.009-2.296l3.56-3.21a.85.85 0 0 1 .873-.163c3.68 1.408 7.072 1.408 9.955.57.415-.121.78-.25 1.089-.377.178-.073.294-.128.343-.153a.85.85 0 0 1 .88.058l3.58 2.51C21.9 5.652 17.576 1.7 12.38 1.7c-5.456 0-9.949 4.356-10.17 9.76zM12.379 30C5.844 30 .5 24.656.5 18.121v-6.242C.5 5.344 5.844 0 12.38 0c6.535 0 11.878 5.344 11.878 11.879v6.242C24.258 24.656 18.915 30 12.38 30zm-3.928-7.026a.85.85 0 1 1 1.24-1.163c.137.145.424.392.829.642 1.602.991 3.322.991 5.173-.69a.85.85 0 1 1 1.143 1.259c-2.466 2.238-5.01 2.238-7.21.877a5.927 5.927 0 0 1-1.175-.925z"/></svg>