<svg width="25" height="30" viewBox="0 0 25 30" xmlns="http://www.w3.org/2000/svg"><title>Combined Shape</title><path d="M12.38 30C5.843 30 .5 24.656.5 18.121v-6.242C.5 5.344 5.844 0 12.38 0c6.535 0 11.878 5.344 11.878 11.879v6.242C24.258 24.656 18.915 30 12.38 30zm0-1.7c5.596 0 10.178-4.582 10.178-10.179v-6.242C22.558 6.282 17.976 1.7 12.38 1.7 6.783 1.7 2.2 6.282 2.2 11.879v6.242C2.2 23.718 6.783 28.3 12.38 28.3zm-4.035-5.57a.85.85 0 1 1 1.24-1.162c.136.145.423.392.828.642 1.603.99 3.322.99 5.173-.69a.85.85 0 1 1 1.143 1.259c-2.465 2.238-5.009 2.238-7.21.877a5.927 5.927 0 0 1-1.174-.925z"/></svg>