<svg width="34" height="36" viewBox="0 0 34 36" xmlns="http://www.w3.org/2000/svg"><title>Artboard Copy 402</title><path d="M30.227 30.068c0 .47-.38.85-.85.85H21.83a.85.85 0 0 1-.85-.85 3.867 3.867 0 0 0-7.733-.002l.003 1.01-1.7.006-.003-1.014a5.567 5.567 0 0 1 11.068-.85h5.912v-7.64c0-.47.38-.85.85-.85a2.923 2.923 0 0 0 0-5.846.85.85 0 0 1-.85-.85v-7.64h-7.64a.85.85 0 0 1-.85-.85 2.924 2.924 0 0 0-5.847 0c0 .47-.38.85-.85.85H5.7v5.91a5.57 5.57 0 0 1 0 11.006v7.771H4v-8.557c0-.47.38-.85.85-.85a3.868 3.868 0 0 0 0-7.734.85.85 0 0 1-.85-.85V5.542c0-.47.38-.85.85-.85h7.718a4.625 4.625 0 0 1 9.091 0h7.718c.47 0 .85.38.85.85v7.718a4.625 4.625 0 0 1 0 9.09v7.718z"/></svg>