<svg width="40" height="47" viewBox="0 0 40 47" xmlns="http://www.w3.org/2000/svg"><title>Artboard Copy 375</title><path d="M5 14.56V8.85A1.85 1.85 0 0 1 6.85 7h26.3A1.85 1.85 0 0 1 35 8.85v22.423l4.943 4.943-10.536 10.536L22.655 40H5V14.56zm28.3 0H6.7V38.3h14.255l-1.525-1.525-.004.03-.842-.122a9.848 9.848 0 0 1-8.439-9.753c0-5.443 4.412-9.855 9.855-9.855a9.825 9.825 0 0 1 6.969 2.887 9.828 9.828 0 0 1 2.816 5.787l.042.35 3.473 3.474V14.559zm0-1.7V8.85a.15.15 0 0 0-.15-.15H6.85a.15.15 0 0 0-.15.15v4.01h26.6zm-5.764 10.949a8.157 8.157 0 0 0-1.77-2.645A8.155 8.155 0 1 0 15.65 33.828a8.142 8.142 0 0 0 1.623.789l-1.795-1.795 10.536-10.536 1.523 1.523zm4.159-13.078a1 1 0 1 1-2 0 1 1 0 0 1 2 0zM26.013 24.69l-8.132 8.132 11.526 11.526 8.132-8.132L26.013 24.69zm8.84 9.829l-.602.6c-.626.627-.626 1.567 0 2.193l.601.6-3.748 3.75-.601-.603c-.626-.626-1.565-.626-2.192 0l-.601.602-7.14-7.142.6-.601c.626-.626.626-1.566 0-2.192l-.6-.601 3.746-3.748.601.6c.627.628 1.566.628 2.192.001l.6-.602 7.143 7.143zm-7.219-4.814a3.187 3.187 0 0 1-3.242 0L22.897 31.2a3.19 3.19 0 0 1 0 3.242l4.89 4.89a3.187 3.187 0 0 1 3.241 0l1.496-1.496a3.19 3.19 0 0 1 0-3.242l-4.89-4.89zm1.95 2.94a2.65 2.65 0 1 1-3.748 3.748 2.65 2.65 0 0 1 3.748-3.748zm-1.202 1.202a.95.95 0 1 0-1.344 1.344.95.95 0 0 0 1.344-1.344z"/></svg>