<svg width="30" height="33" viewBox="0 0 30 33" xmlns="http://www.w3.org/2000/svg"><title>Combined Shape</title><path d="M1.7 7.56V31.3h26.6V7.56H1.7zm0-1.7h26.6V1.85a.15.15 0 0 0-.15-.15H1.85a.15.15 0 0 0-.15.15v4.01zM1.85 0h26.3A1.85 1.85 0 0 1 30 1.85V33H0V1.85A1.85 1.85 0 0 1 1.85 0zM15 10.075c5.443 0 9.855 4.412 9.855 9.855 0 5.442-4.412 9.854-9.855 9.854-5.443 0-9.855-4.412-9.855-9.854 0-5.443 4.412-9.855 9.855-9.855zm0 1.7a8.155 8.155 0 1 0 8.155 8.155A8.155 8.155 0 0 0 15 11.775zm11.695-8.044a1 1 0 1 1-2 0 1 1 0 0 1 2 0zm-7.836 15.992c.288 0 .608-.083.906-.233l1.334-.667-.106 1.488c-.227 3.171-2.805 5.614-5.993 5.614-3.212 0-5.844-2.471-5.995-5.634l-.07-1.45 1.3.65c.297.148.618.232.906.232.476 0 .964-.239 1.29-.61l.677-.774.632.81c.283.363.738.574 1.26.574.476 0 .964-.239 1.29-.61l.677-.774.632.81c.283.363.738.574 1.26.574zm0 1.7a3.356 3.356 0 0 1-1.95-.606 3.398 3.398 0 0 1-1.909.606 3.356 3.356 0 0 1-1.95-.606 3.398 3.398 0 0 1-2.108.6c.589 1.643 2.18 2.808 4.058 2.808a4.273 4.273 0 0 0 4.034-2.807 3.267 3.267 0 0 1-.175.005z"/></svg>