<svg width="12" height="16" viewBox="0 0 12 16" xmlns="http://www.w3.org/2000/svg"><title>Icon</title><path d="M10.43 3.39a3.033 3.033 0 0 0-1.8 0V1a.9.9 0 0 1 1.8 0v2.39zm0 5.72V15a.9.9 0 0 1-1.8 0V9.11a3.033 3.033 0 0 0 1.8 0zm-.9-.955A1.915 1.915 0 0 1 7.603 6.25c0-1.051.861-1.905 1.925-1.905 1.065 0 1.926.854 1.926 1.905a1.915 1.915 0 0 1-1.926 1.905zM3.37 6.89a3.033 3.033 0 0 0-1.8 0V1a.9.9 0 1 1 1.8 0v5.89zm0 5.72V15a.9.9 0 1 1-1.8 0v-2.39a3.033 3.033 0 0 0 1.8 0zm-.9-.955A1.915 1.915 0 0 1 .546 9.75c0-1.051.861-1.905 1.926-1.905 1.064 0 1.925.854 1.925 1.905a1.915 1.915 0 0 1-1.925 1.905z"/></svg>