<svg width="18" height="20" viewBox="0 0 18 20" xmlns="http://www.w3.org/2000/svg"><title>Icon</title><path d="M8.183 5.615a2.663 2.663 0 0 1-1.77-2.501c0-1.473 1.208-2.661 2.69-2.661 1.483 0 2.69 1.188 2.69 2.66a2.66 2.66 0 0 1-1.638 2.45v2.16c0 1.18.159 1.8.573 2.47.194.313 1.258 1.733 1.511 2.097.021.03.06.08.192.25.141-.023.287-.035.435-.035 1.482 0 2.69 1.188 2.69 2.661s-1.208 2.661-2.69 2.661-2.69-1.188-2.69-2.66c0-.67.25-1.28.66-1.747a2.733 2.733 0 0 1-.074-.102c-.204-.292-1.23-1.662-1.53-2.124-.075.1-.16.208-.255.326-.131.163-.777.933-.995 1.197l-3.5 3.874-1.336-1.207 3.472-3.842c.2-.243.84-1.006.96-1.154.228-.282.35-.457.426-.606.154-.302.179-.57.179-2.06V5.616zm4.683 10.412c.495 0 .89-.389.89-.86a.876.876 0 0 0-.89-.862.876.876 0 0 0-.89.861c0 .472.395.861.89.861zm-9.733 3.52c-1.482 0-2.689-1.188-2.689-2.66 0-1.472 1.207-2.66 2.69-2.66 1.48 0 2.688 1.188 2.688 2.66 0 1.472-1.207 2.66-2.689 2.66zm5.97-15.572c.495 0 .89-.389.89-.861a.876.876 0 0 0-.89-.861.876.876 0 0 0-.89.86c0 .473.396.862.89.862zm-5.97 13.772a.875.875 0 0 0 .889-.86.875.875 0 0 0-.889-.86.875.875 0 0 0-.889.86c0 .472.395.86.89.86z"/></svg>