<svg width="27" height="31" viewBox="0 0 27 31" xmlns="http://www.w3.org/2000/svg"><title>Combined Shape</title><path d="M.412 27.576a1 1 0 0 1 1.176-1.617c2.905 2.113 6.727 2.302 11.57.492 5.479-2.048 10.057-1.347 13.548 2.141a1 1 0 0 1-1.414 1.415c-2.899-2.897-6.648-3.471-11.434-1.683-5.422 2.028-9.939 1.804-13.446-.748zM20.426.303l2.606 2.684a1 1 0 0 1-.007 1.4L7.388 20.193a1 1 0 0 1-.386.243l-4.344 1.492c-.815.28-1.579-.534-1.248-1.33l1.737-4.176a1 1 0 0 1 .213-.32L18.998.298a1 1 0 0 1 1.428.006zM4.919 17.37l-.809 1.944 2.021-.694L20.914 3.677 19.702 2.43 4.919 17.37z"/></svg>