<svg width="28" height="32" viewBox="0 0 28 32" xmlns="http://www.w3.org/2000/svg"><title>Stroke 3</title><path d="M14.5 4.117V2.95h-1v1.167h-1v1h1v1.944h1V5.117h1v-1h-1zM7.71 30.962c-1.425.446-2.941.736-4.456.9A24.705 24.705 0 0 1 1.217 32a.85.85 0 0 1-.847-.972c.14-.96.27-1.96.392-2.995.406-3.45.7-7.15.902-10.85a199.179 199.179 0 0 0 .196-4.577l.009-.332C1.869 5.521 7.389 0 14.142 0c6.752 0 12.273 5.521 12.273 12.274l-.002.205c-.006 1.132.005 2.647.049 4.406.065 2.65.192 5.265.394 7.708.193 2.333.447 4.41.769 6.158a.85.85 0 0 1-.766 1.001c-.047.004-.13.01-.245.015-2.229.1-4.953-.223-7.597-1.339a13.746 13.746 0 0 1-2.332-1.252l-5.182-.032c-1.055.763-2.336 1.361-3.794 1.818zm-1.333-19.71v5.942c0 4.269 3.496 7.765 7.765 7.765s7.765-3.496 7.765-7.765v-5.959c-4.414-2.597-9.102-2.549-13.528-.883a17.185 17.185 0 0 0-2.002.9z"/></svg>