<svg data-name="Calque 1" xmlns="http://www.w3.org/2000/svg" viewBox="0 0 14 16"><title>parameter-icon</title><path d="M10.53 3.25a3 3 0 0 1 .9.15V1a.9.9 0 0 0-1.8 0v2.41a3 3 0 0 1 .9-.16zm0 6a3 3 0 0 1-.9-.15V15a.9.9 0 0 0 1.8 0V9.09a3 3 0 0 1-.9.16z"/><ellipse cx="10.53" cy="6.25" rx="1.93" ry="1.91"/><path d="M3.47 12.75a3 3 0 0 1-.9-.15V15a.9.9 0 1 0 1.8 0v-2.41a3 3 0 0 1-.9.16zm0-6a3 3 0 0 1 .9.15V1a.9.9 0 0 0-1.8 0v5.91a3 3 0 0 1 .9-.16z"/><ellipse cx="3.47" cy="9.75" rx="1.93" ry="1.91"/></svg>