<svg width="26" height="30" viewBox="0 0 26 30" xmlns="http://www.w3.org/2000/svg"><title>Combined Shape</title><path d="M22.526 30H3.474a2.764 2.764 0 0 1-2.758-2.758V2.758A2.764 2.764 0 0 1 3.474 0h19.052c1.52 0 2.758 1.24 2.758 2.758v24.484A2.763 2.763 0 0 1 22.526 30zm0-1.7c.58 0 1.058-.478 1.058-1.058V2.758c0-.58-.478-1.058-1.058-1.058H3.474c-.58 0-1.058.478-1.058 1.058v24.484c0 .58.478 1.058 1.058 1.058h19.052zm-6.46-21.613v-1.7h4.872v1.7h-4.871zm-3.033 10.246a3.884 3.884 0 1 1-.001-7.767 3.884 3.884 0 0 1 0 7.767zm0-1.7a2.184 2.184 0 1 0 0-4.367 2.184 2.184 0 0 0 0 4.367zm0 7.796v1.7H8.858a1.733 1.733 0 0 1-1.733-1.733v-2.69a2.615 2.615 0 0 1 2.615-2.617h6.52a2.616 2.616 0 0 1 2.616 2.616v3.573h-1.7v-3.573a.916.916 0 0 0-.916-.916H9.74a.915.915 0 0 0-.915.916v2.69c0 .02.015.034.032.034h4.175z"/></svg>