<svg width="30" height="28" viewBox="0 0 30 28" xmlns="http://www.w3.org/2000/svg"><title>Combined Shape</title><path d="M17.872 18.303h8.773A3.356 3.356 0 0 1 30 21.659v6.303h-1.7V21.66c0-.914-.741-1.655-1.655-1.655h-8.773v3.979h-1.7V17.68c0-.914-.742-1.655-1.656-1.655H3.356c-.915 0-1.656.74-1.656 1.655v4.2c0 .222.18.402.403.402h7.683v1.7H2.103A2.103 2.103 0 0 1 0 21.88v-4.2a3.356 3.356 0 0 1 3.356-3.355h11.16a3.356 3.356 0 0 1 3.356 3.355v.623zm-8.967-6.788c-3.22 0-5.836-2.574-5.836-5.757C3.069 2.574 5.684 0 8.905 0c3.22 0 5.836 2.574 5.836 5.758 0 3.183-2.616 5.757-5.836 5.757zm0-1.7c2.287 0 4.136-1.82 4.136-4.057 0-2.239-1.849-4.058-4.136-4.058-2.288 0-4.136 1.82-4.136 4.058 0 2.238 1.848 4.057 4.136 4.057zm13.476 5.679c-3.22 0-5.836-2.574-5.836-5.757 0-3.184 2.615-5.758 5.836-5.758 3.22 0 5.836 2.574 5.836 5.758 0 3.183-2.616 5.757-5.836 5.757zm0-1.7c2.287 0 4.136-1.82 4.136-4.057 0-2.239-1.849-4.058-4.136-4.058-2.288 0-4.136 1.82-4.136 4.058 0 2.238 1.848 4.057 4.136 4.057z"/></svg>