<svg width="14" height="14" viewBox="0 0 14 14" xmlns="http://www.w3.org/2000/svg"><title>Combined Shape</title><path d="M8.4 8.803h3.785c.892 0 1.615.723 1.615 1.615v2.928h-1v-2.928a.615.615 0 0 0-.615-.615H8.4v1.772h-1V8.647a.615.615 0 0 0-.615-.615h-4.97a.615.615 0 0 0-.615.615v1.87c0 .032.026.058.058.058H4.8v1H1.258A1.058 1.058 0 0 1 .2 10.517v-1.87c0-.892.723-1.615 1.615-1.615h4.97c.892 0 1.615.723 1.615 1.615v.156zm-4.114-2.78c-1.5 0-2.72-1.2-2.72-2.684 0-1.485 1.22-2.685 2.72-2.685 1.5 0 2.72 1.2 2.72 2.685s-1.22 2.685-2.72 2.685zm0-1c.952 0 1.72-.755 1.72-1.684 0-.93-.768-1.685-1.72-1.685s-1.72.756-1.72 1.685.768 1.685 1.72 1.685zm6 2.772c-1.5 0-2.72-1.2-2.72-2.685 0-1.484 1.22-2.685 2.72-2.685 1.5 0 2.72 1.2 2.72 2.685s-1.22 2.685-2.72 2.685zm0-1c.952 0 1.72-.756 1.72-1.685 0-.928-.768-1.685-1.72-1.685s-1.72.757-1.72 1.685c0 .93.768 1.685 1.72 1.685z"/></svg>