<svg width="18" height="18" viewBox="0 0 18 18" xmlns="http://www.w3.org/2000/svg"><title>Combined Shape</title><path d="M10.886 11.334h4.944a2.17 2.17 0 0 1 2.17 2.17v3.198a.7.7 0 0 1-1.4 0v-3.198a.77.77 0 0 0-.77-.77h-4.944v1.634a.7.7 0 0 1-1.4 0V11.17a.77.77 0 0 0-.77-.77H2.17a.77.77 0 0 0-.77.77v2.463c0 .02.015.035.035.035h4.008a.7.7 0 0 1 0 1.4H1.435A1.435 1.435 0 0 1 0 13.633V11.17A2.17 2.17 0 0 1 2.17 9h6.546a2.17 2.17 0 0 1 2.17 2.17v.164zM5.424 7.755c-1.999 0-3.625-1.6-3.625-3.579C1.8 2.198 3.425.598 5.424.598c2 0 3.625 1.6 3.625 3.578 0 1.979-1.625 3.579-3.625 3.579zm0-1.4c1.231 0 2.225-.978 2.225-2.179 0-1.2-.994-2.178-2.225-2.178-1.23 0-2.225.978-2.225 2.178s.994 2.179 2.225 2.179zm7.905 3.734c-2 0-3.625-1.6-3.625-3.58 0-1.977 1.626-3.577 3.625-3.577 2 0 3.625 1.6 3.625 3.578 0 1.979-1.626 3.579-3.625 3.579zm0-1.4c1.231 0 2.225-.978 2.225-2.18 0-1.199-.994-2.177-2.225-2.177-1.23 0-2.225.978-2.225 2.178s.994 2.179 2.225 2.179z"/></svg>