<svg width="24" height="30" viewBox="0 0 24 30" xmlns="http://www.w3.org/2000/svg"><title>Combined Shape</title><path d="M1.821 13.757v4.364C1.821 23.718 6.403 28.3 12 28.3s10.179-4.582 10.179-10.179v-5.3l-4.228-2.964c-.325.134-.747.284-1.258.433-3.088.898-6.682.934-10.546-.433l-4.326 3.9zm.009-2.296l3.56-3.21a.85.85 0 0 1 .872-.163c3.68 1.408 7.073 1.408 9.956.57.415-.121.78-.25 1.089-.377.178-.073.294-.128.343-.153a.85.85 0 0 1 .88.058l3.58 2.51C21.52 5.652 17.197 1.7 12 1.7c-5.456 0-9.949 4.356-10.17 9.76zM12 30C5.465 30 .121 24.656.121 18.121v-6.242C.121 5.344 5.465 0 12 0c6.535 0 11.879 5.344 11.879 11.879v6.242C23.879 24.656 18.535 30 12 30zm-.784-7.07a8.43 8.43 0 0 1-1.537.546c-.368.088-.72.135-1.054.135a.85.85 0 0 1 0-1.7c.19 0 .414-.03.66-.089.378-.09.794-.241 1.224-.438a10.327 10.327 0 0 0 1.037-.549.85.85 0 0 1 .95.029c.172.123.499.324.922.526.685.327 1.361.52 1.957.52a.85.85 0 0 1 0 1.7c-.888 0-1.796-.259-2.69-.686a9.335 9.335 0 0 1-.707-.374c-.218.119-.476.25-.762.38z"/></svg>