<svg width="28" height="30" viewBox="0 0 28 30" xmlns="http://www.w3.org/2000/svg"><title>Combined Shape</title><path d="M9.6 26.413c-2.852-1.635-4.784-4.711-4.784-8.219v-6.991l.506-.224 4.876-2.157a2.413 2.413 0 0 1 1.66-.106c2.828.84 6.624 1.46 11.028 1.41l.86-.01v8.078c0 3.527-1.954 6.618-4.832 8.246.292.15.593.291.902.422 1.347.568 2.795.92 4.269 1.095.673.08 1.292.116 1.837.123a64.57 64.57 0 0 1-.417-3.02c-.296-2.572-.482-5.319-.58-8.096a110.672 110.672 0 0 1-.073-4.532l.002-.159C24.854 6.46 20.094 1.7 14.28 1.7 8.467 1.7 3.708 6.46 3.707 12.296l-.012.372a162.871 162.871 0 0 1-.263 4.803 162.236 162.236 0 0 1-1.097 10.78c.276-.02.568-.047.874-.08 1.412-.154 2.823-.423 4.13-.833.831-.26 1.59-.568 2.262-.926zm1.905.828c-1.029.717-2.262 1.283-3.657 1.72-1.424.447-2.94.736-4.455.9A24.063 24.063 0 0 1 1.355 30a.85.85 0 0 1-.847-.973c.557-3.825.958-7.793 1.228-11.673a161.179 161.179 0 0 0 .26-4.747l.012-.334C2.008 5.521 7.528 0 14.28 0c6.752 0 12.273 5.522 12.273 12.286l-.002.16c-.008 1.125.01 2.661.072 4.46.096 2.735.28 5.438.57 7.96.16 1.386.35 2.687.57 3.887a.85.85 0 0 1-.766 1c-.048.005-.13.01-.244.015-2.23.1-4.954-.223-7.599-1.339a13.82 13.82 0 0 1-2.191-1.16 9.398 9.398 0 0 1-2.683.39 9.396 9.396 0 0 1-2.776-.417zm-.13-16.895a.71.71 0 0 0-.49.031l-4.37 1.932v5.885c0 4.268 3.497 7.764 7.766 7.764 4.268 0 7.765-3.496 7.765-7.764v-6.367c-4.225-.032-7.879-.651-10.67-1.48z"/></svg>