<svg width="23" height="30" viewBox="0 0 23 30" xmlns="http://www.w3.org/2000/svg"><title>Combined Shape</title><path d="M11.176 14.087a7.043 7.043 0 0 1-7.043-7.043 7.043 7.043 0 1 1 14.086 0 7.043 7.043 0 0 1-7.043 7.043zm0-1.7a5.343 5.343 0 1 0 0-10.688 5.343 5.343 0 0 0 0 10.688zm0 15.912v1.7H2.653A2.653 2.653 0 0 1 0 27.348v-5.492A4.456 4.456 0 0 1 4.456 17.4l13.307-.001a4.456 4.456 0 0 1 4.456 4.456v7.295h-1.7v-7.295a2.756 2.756 0 0 0-2.756-2.756H4.456A2.756 2.756 0 0 0 1.7 21.856v5.492c0 .526.426.953.953.953l8.523-.001z"/></svg>