<svg width="30" height="30" viewBox="0 0 30 30" xmlns="http://www.w3.org/2000/svg"><title>Combined Shape</title><path d="M26.381 30H3.62A3.607 3.607 0 0 1 0 26.382V3.618A3.607 3.607 0 0 1 3.62 0h22.76A3.606 3.606 0 0 1 30 3.618v22.764A3.606 3.606 0 0 1 26.382 30zm0-1.7c1.07 0 1.919-.85 1.919-1.918V3.618c0-1.069-.85-1.918-1.919-1.918H3.62c-1.07 0-1.92.85-1.92 1.918v22.764c0 1.068.85 1.918 1.92 1.918h22.76zm-2.03-1.376h-5.168a1.821 1.821 0 0 1-1.834-1.834V4.91c0-1.022.81-1.834 1.834-1.834h5.168c1.024 0 1.834.812 1.834 1.835V25.09a1.82 1.82 0 0 1-1.834 1.834zm0-1.7c.084 0 .134-.05.134-.134V4.91c0-.084-.05-.134-.134-.134h-5.168c-.084 0-.134.05-.134.135V25.09c0 .084.05.134.134.134h5.168zm-19.81-9.866v-1.7h1.97v1.7H4.54zm4.122 0v-1.7h1.97v1.7h-1.97zm4.184 0v-1.7h1.969v1.7h-1.97zm-8.306 3.26v-1.7h1.97v1.7H4.54zm4.122 0v-1.7h1.97v1.7h-1.97zm4.184 0v-1.7h1.969v1.7h-1.97zM4.54 21.942v-1.7h1.97v1.7H4.54zm4.122 0v-1.7h1.97v1.7h-1.97zm4.184 0v-1.7h1.969v1.7h-1.97zM4.54 25.263v-1.7h1.97v1.7H4.54zm4.122 0v-1.7h1.97v1.7h-1.97zm4.184 0v-1.7h1.969v1.7h-1.97z"/></svg>