<svg width="30" height="30" viewBox="0 0 30 30" xmlns="http://www.w3.org/2000/svg"><title>Page 1</title><path d="M20.178 20.715a.85.85 0 1 1-1.203-1.202l3.31-3.31a.85.85 0 0 1 1.203 0l5.965 5.965c.73.728.73 1.909 0 2.638l-3.756 3.757a4.91 4.91 0 0 1-6.944 0L1.437 11.246a4.91 4.91 0 0 1 0-6.942L5.194.547c.73-.73 1.91-.73 2.637 0l6.181 6.18a.85.85 0 0 1 0 1.202l-3.2 3.2A.85.85 0 1 1 9.61 9.927l2.6-2.6-5.581-5.58a.163.163 0 0 0-.232.002L2.64 5.506a3.21 3.21 0 0 0 0 4.539L19.955 27.36a3.21 3.21 0 0 0 4.54 0l3.756-3.756a.164.164 0 0 0 0-.233l-5.364-5.365-2.71 2.709z"/></svg>