<svg width="21" height="30" viewBox="0 0 21 30" xmlns="http://www.w3.org/2000/svg"><title>Combined Shape</title><path d="M17.208 30H3.368C1.502 30 0 28.463 0 26.577V3.423C0 1.537 1.503 0 3.367 0h13.841c1.864 0 3.367 1.537 3.367 3.423v23.154c0 1.886-1.503 3.423-3.367 3.423zm0-1.7c.916 0 1.667-.767 1.667-1.723V3.423c0-.956-.75-1.723-1.667-1.723H3.368C2.45 1.7 1.7 2.467 1.7 3.423v23.154c0 .956.75 1.723 1.667 1.723h13.841zm-6.92-5.214c.822 0 1.49.679 1.49 1.516s-.668 1.516-1.49 1.516c-.824 0-1.49-.68-1.49-1.516 0-.837.666-1.516 1.49-1.516z"/></svg>