<svg width="30" height="30" viewBox="0 0 30 30" xmlns="http://www.w3.org/2000/svg"><title>Combined Shape</title><path d="M8.7 9.902L4.05 14.55c-3.133 3.133-3.133 8.266 0 11.399 3.133 3.133 8.266 3.133 11.399 0l4.65-4.65-11.4-11.398zM9.902 8.7L21.3 20.098l4.649-4.649c3.133-3.133 3.133-8.266 0-11.399-3.133-3.133-8.266-3.133-11.399 0L9.901 8.7zM2.848 27.152c-3.797-3.797-3.797-10.006 0-13.803L13.349 2.848c3.797-3.797 10.006-3.797 13.803 0 3.797 3.797 3.797 10.006 0 13.803L16.651 27.152c-3.797 3.797-10.006 3.797-13.803 0z"/></svg>