<svg width="30" height="27" viewBox="0 0 30 27" xmlns="http://www.w3.org/2000/svg"><title>Combined Shape</title><path d="M7.035 7.547h18.342A4.622 4.622 0 0 1 30 12.17a4.622 4.622 0 0 1-4.623 4.624h-3.292l-5.412 9.02a.85.85 0 0 1-.73.413H8.398a.85.85 0 0 1-.73-1.288l4.888-8.145H4.624a.85.85 0 0 1-.807-.581L.043 4.893a.85.85 0 0 1 .807-1.12h3.774a.85.85 0 0 1 .76.47l1.651 3.304zm13.84 7.96a.85.85 0 0 1 .729-.413h3.773A2.922 2.922 0 0 0 28.3 12.17a2.922 2.922 0 0 0-2.923-2.923H6.51a.85.85 0 0 1-.76-.47L4.097 5.474H2.03l3.207 9.62h8.82a.85.85 0 0 1 .73 1.287l-4.888 8.146h5.564l5.413-9.02zM13.31 5.002l-1.52.76L9.523 1.23a.85.85 0 0 1 .76-1.23h5.66a.85.85 0 0 1 .76.47l2.267 4.532-1.52.76L15.418 1.7h-3.76l1.652 3.303z"/></svg>