<svg width="31" height="30" viewBox="0 0 31 30" xmlns="http://www.w3.org/2000/svg"><title>Combined Shape</title><path d="M9.107 5.064V1.85A1.85 1.85 0 0 1 10.957 0h8.107a1.85 1.85 0 0 1 1.85 1.85v3.214h6.236a2.871 2.871 0 0 1 2.871 2.871v10.108c0 .47-.38.85-.85.85H.851a.85.85 0 0 1-.85-.85V7.935a2.871 2.871 0 0 1 2.87-2.87h6.236zm10.107 0V1.85a.15.15 0 0 0-.15-.15h-8.107a.15.15 0 0 0-.15.15v3.214h8.407zm9.107 12.13v-9.26a1.17 1.17 0 0 0-1.17-1.17H2.87a1.17 1.17 0 0 0-1.17 1.17v9.258h26.62zM27.3 21.235H29v5.893a2.871 2.871 0 0 1-2.871 2.87H3.893a2.871 2.871 0 0 1-2.872-2.87v-5.893h1.7v5.893c0 .646.525 1.17 1.172 1.17h22.236a1.17 1.17 0 0 0 1.171-1.17v-5.893z"/></svg>