<svg width="24" height="34" viewBox="0 0 24 34" xmlns="http://www.w3.org/2000/svg"><title>Combined Shape</title><path d="M9.189 31.625l.032 1.953-1.7.028-.068-4.121C3.158 27.69.12 23.442.12 18.515v-6.242C.121 5.737 5.465.393 12 .393c6.535 0 11.879 5.344 11.879 11.88v6.242c0 4.947-3.063 9.212-7.387 10.992l.068 4.071-1.7.028-.033-1.984-5.638.003zM1.82 14.151v4.364c0 5.596 4.582 10.179 10.179 10.179s10.179-4.583 10.179-10.18v-5.299l-4.228-2.964c-.325.133-.747.284-1.258.432-3.088.898-6.682.935-10.546-.432l-4.326 3.9zm.009-2.297l3.56-3.21a.85.85 0 0 1 .872-.162c3.68 1.407 7.073 1.407 9.956.569.415-.12.78-.25 1.089-.376.178-.074.294-.128.343-.153a.85.85 0 0 1 .88.058l3.58 2.51C21.52 6.046 17.197 2.095 12 2.095c-5.456 0-9.949 4.356-10.17 9.76z"/></svg>