<svg width="18" height="17" viewBox="0 0 18 17" xmlns="http://www.w3.org/2000/svg"><title>Role</title><path d="M7.504 8.23a3.965 3.965 0 1 1 0-7.93 3.965 3.965 0 0 1 0 7.93zm0-1.4a2.565 2.565 0 1 0 0-5.13 2.565 2.565 0 0 0 0 5.13zm.02 8.294a.7.7 0 0 1 0 1.4h-5.35A1.644 1.644 0 0 1 .53 14.879v-2.46a2.59 2.59 0 0 1 2.59-2.59h6.904a.7.7 0 1 1 0 1.4H3.12a1.19 1.19 0 0 0-1.189 1.19v2.46c0 .135.11.245.245.245h5.35zm8.469-4.58a.7.7 0 1 1 1.063.912l-4.289 5a.7.7 0 0 1-1.062 0L9.993 14.46a.7.7 0 0 1 1.063-.912l1.18 1.376 3.757-4.38z"/></svg>