<svg width="14" height="14" viewBox="0 0 14 14" xmlns="http://www.w3.org/2000/svg"><title>Combined Shape</title><path d="M5.873 6.904a3.377 3.377 0 1 1 0-6.754 3.377 3.377 0 0 1 0 6.754zm0-1.4a1.978 1.978 0 1 0 0-3.955 1.978 1.978 0 0 0 0 3.955zm-4.37 6.801a.7.7 0 0 1 0 1.4c-.814 0-1.474-.66-1.474-1.474v-2.018a2.248 2.248 0 0 1 2.248-2.249H7.94a.7.7 0 1 1 0 1.4H2.277a.848.848 0 0 0-.848.85v2.017c0 .041.033.074.074.074zm6.316-.335a.7.7 0 0 1 1.062-.912l1.403 1.636a.7.7 0 0 1-1.062.912L7.819 11.97zm2.466 1.636a.7.7 0 1 1-1.063-.912l3.517-4.1a.7.7 0 0 1 1.063.912l-3.517 4.1z"/></svg>