<svg width="18" height="18" viewBox="0 0 18 18" xmlns="http://www.w3.org/2000/svg"><title>Combined Shape</title><path d="M7.51 8.646a4.243 4.243 0 1 1 0-8.487 4.244 4.244 0 0 1 0 8.487zm0-1.4a2.843 2.843 0 1 0 0-5.685 2.843 2.843 0 0 0 0 5.685zm.022 9.003a.7.7 0 0 1 0 1.4H1.726A1.725 1.725 0 0 1 0 15.924v-2.671a2.75 2.75 0 0 1 2.75-2.75h7.495a.7.7 0 0 1 0 1.4H2.75a1.35 1.35 0 0 0-1.351 1.35v2.67c0 .18.146.326.326.326h5.806zm9.237-4.991a.7.7 0 1 1 1.062.911l-4.654 5.427a.7.7 0 0 1-1.062 0l-1.858-2.166a.7.7 0 1 1 1.062-.911l1.327 1.546 4.123-4.807z"/></svg>