<svg width="14" height="14" viewBox="0 0 14 14" xmlns="http://www.w3.org/2000/svg"><title>Combined Shape</title><path d="M.662 13.337c-.9-.9-.877-2.37.036-3.283.914-.914 2.385-.937 3.284-.037.901.9.878 2.37-.036 3.284-.913.914-2.383.937-3.284.036zm2.294-1.025c.374-.374.383-.958.036-1.305-.346-.347-.93-.337-1.304.036-.373.374-.382.958-.036 1.305.347.346.93.337 1.304-.036zm5.806.662l-.012.7-1.4-.022.012-.7a6.192 6.192 0 0 0-1.806-4.508 6.192 6.192 0 0 0-4.508-1.806l-.7.011-.022-1.4.7-.01a7.591 7.591 0 0 1 5.52 2.215 7.591 7.591 0 0 1 2.216 5.52zm5.236.033l-.01.7-1.4-.022.01-.7c.05-3.105-1.113-6.068-3.314-8.27-2.2-2.2-5.164-3.362-8.269-3.313l-.7.01-.021-1.4.7-.01C4.47-.053 7.8 1.254 10.274 3.726c2.473 2.473 3.779 5.802 3.724 9.28z"/></svg>