<svg width="30" height="30" viewBox="0 0 30 30" xmlns="http://www.w3.org/2000/svg"><title>Combined Shape</title><path d="M23.154 27.427H6.846V30h-1.7v-2.573H.85a.85.85 0 0 1-.85-.85V.85C0 .38.38 0 .85 0h28.3c.47 0 .85.38.85.85v25.727c0 .47-.38.85-.85.85h-4.295V30h-1.7v-2.573zm-12.372-8.293A6.839 6.839 0 0 0 15 20.581c1.59 0 3.054-.54 4.218-1.447l-2.474-2.475a3.408 3.408 0 0 1-1.744.477 3.408 3.408 0 0 1-1.743-.477l-2.475 2.475zM9.58 17.932l2.474-2.474a3.406 3.406 0 0 1-.477-1.744c0-.637.174-1.234.477-1.744L9.58 9.495a6.838 6.838 0 0 0-1.448 4.218 6.84 6.84 0 0 0 1.448 4.22zm10.84-8.436l-2.474 2.474c.303.511.477 1.107.477 1.744s-.174 1.233-.477 1.743l2.474 2.475a6.839 6.839 0 0 0 1.448-4.219c0-1.59-.54-3.053-1.447-4.217zm-1.2-1.202A6.838 6.838 0 0 0 15 6.845c-1.59 0-3.054.54-4.218 1.448l2.474 2.475A3.407 3.407 0 0 1 15 10.29c.637 0 1.234.174 1.745.477l2.474-2.474zm9.08 17.433V1.7H1.7v24.027h26.6zM15 5.145a8.568 8.568 0 1 1 0 17.136 8.568 8.568 0 0 1 0-17.136zm0 6.846a1.723 1.723 0 1 0 0 3.446 1.723 1.723 0 0 0 0-3.446z"/></svg>