<svg width="14" height="10" viewBox="0 0 14 10" xmlns="http://www.w3.org/2000/svg"><title>Combined Shape</title><path d="M8.68 8.15c.055 0 .14-.098.14-.263V2.112c0-.164-.085-.262-.14-.262H1.54c-.055 0-.14.098-.14.262v5.775c0 .165.085.263.14.263h7.14zm1.54-5.351l2.764-1.398A.7.7 0 0 1 14 2.026v5.95a.7.7 0 0 1-1.016.624L10.22 7.201v.686c0 .899-.667 1.663-1.54 1.663H1.54C.667 9.55 0 8.786 0 7.887V2.112C0 1.214.667.45 1.54.45h7.14c.873 0 1.54.764 1.54 1.662v.687zm0 1.569v1.264l2.38 1.205V3.164l-2.38 1.204z"/></svg>