<svg width="18" height="12" viewBox="0 0 18 12" xmlns="http://www.w3.org/2000/svg"><title>Combined Shape</title><path d="M11.213 10.372c.202 0 .407-.235.407-.568V2.196c0-.333-.205-.568-.407-.568H1.806c-.202 0-.406.234-.406.568v7.608c0 .333.205.568.406.568h9.407zm1.807-6.91l3.964-2.007A.7.7 0 0 1 18 2.08v7.839a.7.7 0 0 1-1.016.625L13.02 8.539v1.265c0 1.067-.786 1.968-1.807 1.968H1.806c-1.02 0-1.806-.9-1.806-1.968V2.196C0 1.128.786.228 1.806.228h9.407c1.02 0 1.807.9 1.807 1.968v1.265zm0 1.568v1.94l3.58 1.81V3.22l-3.58 1.81z"/></svg>