<svg width="20" height="19" viewBox="0 0 20 19" xmlns="http://www.w3.org/2000/svg"><title>Scheduler</title><path d="M17.614 14.186l1.823-.598.436 1.33-3.845 1.261a.8.8 0 0 1-1.007-.506l-1.313-3.915 1.328-.445.952 2.842a7.819 7.819 0 0 0 .603-7.858C14.71 2.443 10.015.827 6.16 2.706 2.307 4.586.69 9.282 2.57 13.136S9.145 18.607 13 16.727l.613 1.259c-4.55 2.218-10.083.313-12.302-4.236C-.908 9.2.998 3.667 5.547 1.448c4.55-2.22 10.083-.314 12.302 4.236a9.207 9.207 0 0 1-.235 8.502zm-1.453.477l-.003-.003v.003h.003z"/><path d="M10.554 5.705l1.342.399-1.598 5.379H5.826v-1.4h3.428z"/></svg>