<svg width="14" height="14" viewBox="0 0 14 14" xmlns="http://www.w3.org/2000/svg"><title>Combined Shape</title><path d="M5.159 1.94V.55h3.682v1.39H5.16zm-3.77 0v2.302H0V1.245C0 .862.311.551.695.551h2.987V1.94H1.39zm11.222 0h-2.293V.55h2.987c.384 0 .695.312.695.695v2.997h-1.39V1.94zM1.389 12.06h2.293v1.39H.695A.695.695 0 0 1 0 12.754V9.758h1.39v2.302zm11.222-2.302H14v2.997a.695.695 0 0 1-.695.694h-2.987V12.06h2.293V9.758zM5.159 13.45v-1.39h3.682v1.39H5.16zM0 5.73h1.39v2.54H0V5.73zm12.61 0H14v2.54h-1.39V5.73z"/></svg>