<svg width="17" height="6" viewBox="0 0 17 6" xmlns="http://www.w3.org/2000/svg"><title>Combined Shape</title><path d="M.397 3.772l.73-.146c.065.441.187.761.363.96.176.201.466.3.87.3.33 0 .583-.069.762-.209a.648.648 0 0 0 .268-.536.615.615 0 0 0-.243-.515c-.163-.125-.522-.276-1.08-.453-.528-.167-.906-.358-1.13-.574a1.092 1.092 0 0 1-.338-.824c0-.362.141-.672.424-.93.283-.258.666-.386 1.15-.386.453 0 .84.114 1.155.341.315.227.507.562.577 1.002l-.696.154c-.06-.27-.169-.477-.327-.623-.158-.147-.395-.22-.71-.22-.288 0-.506.062-.654.188a.592.592 0 0 0-.223.474c0 .171.074.31.223.414.148.104.482.242 1.002.414.608.204 1.02.413 1.235.626.216.214.324.504.324.87 0 .413-.154.757-.463 1.03-.308.275-.73.412-1.263.412-.576 0-1.028-.15-1.357-.45-.33-.298-.53-.739-.599-1.319zM4.95 5.436V.563h2.979v.647H5.646v1.413h2.089v.621h-2.09v1.551H7.93v.641H4.95zm4.058 0V.563h1.908c.492 0 .889.135 1.19.405.302.268.453.639.453 1.113s-.147.844-.442 1.11c-.296.267-.694.4-1.195.4H9.704v1.845h-.696zm.697-2.485h1.19c.274 0 .5-.075.678-.226.178-.151.268-.366.268-.644 0-.297-.09-.516-.27-.657-.181-.142-.41-.213-.684-.213H9.704v1.74zm6.16 2.485l-.32-.898h-2.088l-.313.898h-.724L14.18.563h.669l1.754 4.873h-.737zm-1.371-3.87l-.828 2.373h1.67l-.828-2.373h-.014z" fill-rule="evenodd"/></svg>