<svg width="42" height="13" viewBox="0 0 42 13" xmlns="http://www.w3.org/2000/svg"><title>Combined Shape</title><path d="M0 8.412l1.856-.37c.165 1.12.471 1.932.919 2.438.448.507 1.184.76 2.209.76.836 0 1.481-.176 1.935-.53.454-.353.681-.807.681-1.36 0-.554-.207-.99-.619-1.309-.412-.317-1.325-.7-2.739-1.148-1.343-.425-2.301-.91-2.872-1.458C.798 4.887.513 4.19.513 3.341c0-.919.359-1.706 1.078-2.36C2.31.326 3.282 0 4.507 0c1.154 0 2.132.288 2.934.865.801.577 1.29 1.426 1.467 2.545L7.14 3.8c-.153-.683-.43-1.21-.83-1.58-.401-.372-1.002-.558-1.803-.558-.731 0-1.284.16-1.661.477-.378.318-.566.72-.566 1.203 0 .436.188.786.566 1.05.377.266 1.225.616 2.545 1.052 1.543.52 2.589 1.05 3.137 1.591.548.542.822 1.28.822 2.21 0 1.048-.393 1.92-1.176 2.615-.783.695-1.853 1.043-3.207 1.043-1.462 0-2.61-.38-3.447-1.14C.683 11.002.177 9.886 0 8.412zm11.558 4.225V.265h7.564v1.643h-5.796v3.589h5.301V7.07h-5.3v3.94h5.795v1.627h-7.564zm10.303 0V.265h4.843c1.25 0 2.256.342 3.023 1.025.765.684 1.148 1.626 1.148 2.828 0 1.2-.373 2.142-1.122 2.818-.748.679-1.759 1.017-3.03 1.017H23.63v4.684h-1.768zm1.768-6.31h3.022c.695 0 1.27-.191 1.724-.574.453-.383.68-.928.68-1.635 0-.753-.23-1.311-.69-1.67-.458-.36-1.037-.54-1.731-.54h-3.005v4.419zm15.642 6.31l-.814-2.28h-5.301l-.796 2.28h-1.838L34.992.264h1.698l4.454 12.371H39.27zM35.789 2.81l-2.103 6.027h4.24L35.825 2.81h-.035z" fill-rule="evenodd"/></svg>