<svg width="30" height="22" viewBox="0 0 30 22" xmlns="http://www.w3.org/2000/svg"><title>Combined Shape</title><path d="M17.386 8.01a4.06 4.06 0 0 0-2.23-.661c-2.252 0-4.123 1.87-4.123 4.123v.75h-1.5v-.75c0-3.081 2.542-5.623 5.623-5.623 1.238 0 2.411.403 3.367 1.128V5.18h1.5v3.58a.75.75 0 0 1-.75.75h-3.58v-1.5h1.693zm-5.327 7.43a4.056 4.056 0 0 0 2.785 1.098c2.253 0 4.123-1.87 4.123-4.123v-.75h1.5v.75c0 3.081-2.542 5.623-5.623 5.623a5.556 5.556 0 0 1-3.81-1.502v1.735h-1.5v-3.58a.75.75 0 0 1 .75-.75h3.58v1.5h-1.805zM30 15.718c0 3.133-2.395 5.755-5.567 6.038l-17.988-.002C2.824 21.477 0 18.432 0 14.773a6.975 6.975 0 0 1 4.221-6.406A11.22 11.22 0 0 1 15 .245c5.7 0 10.445 4.267 11.131 9.84A6.035 6.035 0 0 1 30 15.718zm-5.509-4.937c-.357-4.965-4.49-8.835-9.491-8.835a9.52 9.52 0 0 0-9.242 7.258.85.85 0 0 1-.542.599 5.277 5.277 0 0 0-3.516 4.97c0 2.77 2.139 5.076 4.81 5.282l17.847.003c2.219-.2 3.943-2.087 3.943-4.341a4.336 4.336 0 0 0-3.186-4.178.85.85 0 0 1-.623-.759z"/></svg>