<svg width="27" height="30" viewBox="0 0 27 30" xmlns="http://www.w3.org/2000/svg"><title>Combined Shape</title><path d="M1.7 15.018c.045 1.369 5.208 2.905 11.414 2.905 6.232 0 11.413-1.55 11.413-2.923V7.037c-2.256 1.405-6.528 2.21-11.413 2.21-4.886 0-9.158-.805-11.414-2.21v7.981zm0 2.396v7.962c0 1.374 5.18 2.924 11.413 2.924 6.232 0 11.414-1.55 11.414-2.924v-7.963c-2.256 1.406-6.528 2.21-11.413 2.21-4.886 0-9.158-.804-11.414-2.21zM0 15.035V4.624C0 1.761 5.885 0 13.114 0c7.228 0 13.113 1.76 13.113 4.623v20.753c0 2.863-5.886 4.624-13.114 4.624C5.886 30 0 28.24 0 25.376v-10.34zM24.527 4.623c0-1.373-5.18-2.923-11.413-2.923C6.88 1.7 1.7 3.25 1.7 4.623c0 1.374 5.18 2.923 11.414 2.923 6.232 0 11.413-1.55 11.413-2.923z"/></svg>