<svg width="11" height="14" viewBox="0 0 11 14" xmlns="http://www.w3.org/2000/svg"><title>Settings</title><path d="M9.803 3.28a2.216 2.216 0 0 0-1.309 0V1a.655.655 0 1 1 1.31 0v2.28zm0 4.167V13a.655.655 0 1 1-1.309 0V7.447a2.216 2.216 0 0 0 1.31 0zm-.654-.431a1.66 1.66 0 0 1-1.67-1.652c0-.912.746-1.653 1.67-1.653.923 0 1.67.741 1.67 1.653 0 .911-.747 1.652-1.67 1.652zm-5.946-.463a2.216 2.216 0 0 0-1.309 0V1a.655.655 0 1 1 1.31 0v5.553zm0 4.167V13a.655.655 0 1 1-1.309 0v-2.28a2.216 2.216 0 0 0 1.31 0zm-.654-.431c-.924 0-1.67-.741-1.67-1.653a1.66 1.66 0 0 1 1.67-1.652c.923 0 1.67.74 1.67 1.652 0 .912-.747 1.653-1.67 1.653z"/></svg>