<svg width="13" height="18" viewBox="0 0 13 18" xmlns="http://www.w3.org/2000/svg"><title>Combined Shape</title><path d="M2.027 14.643a3.76 3.76 0 0 0 1.7 0v2.507a.85.85 0 0 1-1.7 0v-2.507zm0-7.211V.85a.85.85 0 1 1 1.7 0v6.582a3.76 3.76 0 0 0-1.7 0zm7.218 3.136a3.76 3.76 0 0 0 1.7 0v6.582a.85.85 0 0 1-1.7 0v-6.582zm0-7.211V.85a.85.85 0 0 1 1.7 0v2.507a3.76 3.76 0 0 0-1.7 0zm.85 1.603c1.12 0 2.026.898 2.026 2.002a2.014 2.014 0 0 1-2.026 2.003 2.014 2.014 0 0 1-2.026-2.003c0-1.104.905-2.002 2.026-2.002zM2.876 9.035c1.121 0 2.026.898 2.026 2.003a2.014 2.014 0 0 1-2.026 2.002A2.014 2.014 0 0 1 .85 11.038c0-1.105.906-2.003 2.026-2.003z"/></svg>