<svg width="10" height="14" viewBox="0 0 10 14" xmlns="http://www.w3.org/2000/svg"><title>Combined Shape</title><path d="M1.51 11.396a2.948 2.948 0 0 0 1.4 0V13.3a.7.7 0 0 1-1.4 0v-1.904zm0-5.642V.7a.7.7 0 0 1 1.4 0v5.054a2.948 2.948 0 0 0-1.4 0zm5.58 2.492a2.948 2.948 0 0 0 1.4 0V13.3a.7.7 0 0 1-1.4 0V8.246zm0-5.642V.7a.7.7 0 0 1 1.4 0v1.904a2.948 2.948 0 0 0-1.4 0zm.7 1.316c.843 0 1.524.675 1.524 1.505 0 .83-.681 1.505-1.524 1.505a1.515 1.515 0 0 1-1.524-1.505c0-.83.681-1.505 1.524-1.505zM2.21 7.07c.843 0 1.524.675 1.524 1.505 0 .83-.681 1.505-1.524 1.505A1.515 1.515 0 0 1 .686 8.575c0-.83.681-1.505 1.524-1.505z"/></svg>