<svg width="26" height="30" viewBox="0 0 26 30" xmlns="http://www.w3.org/2000/svg"><title>Combined Shape</title><path d="M18.803 28.03v1.7H2.807a2.124 2.124 0 0 1-2.123-2.124V2.124C.684.951 1.634 0 2.807 0h14.234c.9 0 1.765.358 2.402.996l4.879 4.877c.637.637.994 1.501.994 2.403V30h-1.7V8.276c0-.45-.178-.883-.496-1.2l-4.88-4.879a1.699 1.699 0 0 0-1.2-.498H2.807a.424.424 0 0 0-.424.424v25.482c0 .235.19.424.424.424h15.996zm-2.087-14.439a2.442 2.442 0 0 1 2.442 2.442v6.001a1.75 1.75 0 0 1-1.75 1.75H6.842V13.591h9.874zm-8.174 8.493h8.866a.05.05 0 0 0 .05-.05v-6.001a.742.742 0 0 0-.742-.742H8.542v6.793z"/></svg>