<svg width="14" height="14" viewBox="0 0 14 14" xmlns="http://www.w3.org/2000/svg"><title>Combined Shape</title><path d="M10.96 13.9H2.94A2.941 2.941 0 0 1 0 10.959V2.941A2.941 2.941 0 0 1 2.94 0h8.018A2.941 2.941 0 0 1 13.9 2.941v8.018a2.941 2.941 0 0 1-2.94 2.941zm0-1.3c.905 0 1.64-.735 1.64-1.641V2.941c0-.906-.735-1.641-1.64-1.641H2.94A1.64 1.64 0 0 0 1.3 2.941v8.018A1.64 1.64 0 0 0 2.94 12.6h8.018zm-4.01-1.564a4.086 4.086 0 1 1 0-8.172 4.086 4.086 0 0 1 0 8.172zm0-1.3a2.786 2.786 0 1 0 0-5.572 2.786 2.786 0 0 0 0 5.572z"/></svg>