<svg width="12" height="14" viewBox="0 0 12 14" xmlns="http://www.w3.org/2000/svg"><title>Combined Shape</title><path d="M5.693 4.55H2.37v5.688h3.324V8.575a.7.7 0 0 1 .7-.7h2.363a.7.7 0 0 1 .495.205l1.575 1.575a.7.7 0 0 1 .205.495v3.15a.7.7 0 0 1-.7.7H6.393a.7.7 0 0 1-.7-.7v-1.662H1.67a.7.7 0 0 1-.7-.7V.7a.7.7 0 0 1 1.4 0v2.45h3.324V1.488a.7.7 0 0 1 .7-.7h2.363a.7.7 0 0 1 .495.205l1.575 1.575a.7.7 0 0 1 .205.494v3.15a.7.7 0 0 1-.7.7H6.393a.7.7 0 0 1-.7-.7V4.55zm3.938-1.198L8.466 2.188H7.093v3.325h2.538v-2.16zm0 7.088L8.466 9.275H7.093V12.6h2.538v-2.16z"/></svg>