<svg width="14" height="18" viewBox="0 0 14 18" xmlns="http://www.w3.org/2000/svg"><title>Combined Shape</title><path d="M6.82 14.888H1.293a.7.7 0 0 1-.7-.7V.7a.7.7 0 0 1 1.4 0v3.45h4.825V1.737a.7.7 0 0 1 .7-.7h3.112a.7.7 0 0 1 .495.206L13.2 3.318a.7.7 0 0 1 .205.494v4.15a.7.7 0 0 1-.7.7H7.52a.7.7 0 0 1-.7-.7V5.55H1.994v7.938h4.825v-2.413a.7.7 0 0 1 .7-.7h3.112a.7.7 0 0 1 .495.205l2.075 2.075a.7.7 0 0 1 .205.495v4.15a.7.7 0 0 1-.7.7H7.52a.7.7 0 0 1-.7-.7v-2.412zm5.186-10.786l-1.665-1.665H8.22v4.825h3.787v-3.16zm0 9.338l-1.665-1.665H8.22V16.6h3.787v-3.16z"/></svg>