<svg width="13" height="19" viewBox="0 0 13 19" xmlns="http://www.w3.org/2000/svg"><title>Structure</title><path d="M6.277 15.313h-5.3a.7.7 0 0 1-.7-.7v-13a.7.7 0 0 1 1.4 0v3.3h4.6v-2.3a.7.7 0 0 1 .7-.7h3a.7.7 0 0 1 .495.205l2 2a.7.7 0 0 1 .205.495v4a.7.7 0 0 1-.7.7h-5a.7.7 0 0 1-.7-.7v-2.3h-4.6v7.6h4.6v-2.3a.7.7 0 0 1 .7-.7h3a.7.7 0 0 1 .495.205l2 2a.7.7 0 0 1 .205.495v4a.7.7 0 0 1-.7.7h-5a.7.7 0 0 1-.7-.7v-2.3zm5-1.41l-1.59-1.59h-2.01v4.6h3.6v-3.01zm0-9l-1.59-1.59h-2.01v4.6h3.6v-3.01z"/></svg>