<svg width="22" height="30" viewBox="0 0 22 30" xmlns="http://www.w3.org/2000/svg"><title>Combined Shape</title><path d="M11.034 24.694H1.272a.85.85 0 0 1-.85-.85V0h1.7v7.075h8.912V2.618c0-.47.38-.85.85-.85h5.307a.85.85 0 0 1 .601.25l3.537 3.537a.85.85 0 0 1 .25.601v7.075a.85.85 0 0 1-.85.85h-8.845a.85.85 0 0 1-.85-.85V8.775H2.122v14.219h8.912v-4.456c0-.47.38-.85.85-.85h5.307a.85.85 0 0 1 .601.249l3.537 3.537a.85.85 0 0 1 .25.601v7.075a.85.85 0 0 1-.85.85h-8.845a.85.85 0 0 1-.85-.85v-4.456zm8.844-18.186l-3.04-3.04h-4.104v8.913h7.144V6.508zm0 15.92l-3.039-3.04h-4.105V28.3h7.144v-5.873z"/></svg>