<svg width="30" height="30" viewBox="0 0 30 30" xmlns="http://www.w3.org/2000/svg"><title>Combined Shape</title><path d="M21.796 20.115H15.49v3.82h4.658a12.013 12.013 0 0 0 1.647-3.82zm1.025 0a12.88 12.88 0 0 1-1.496 3.82h3.995a13.65 13.65 0 0 0 2.34-3.82h-4.84zm-5.595 8.354a13.608 13.608 0 0 0 7.136-3.535h-3.683a15.382 15.382 0 0 1-1.294 1.589c-.69.742-1.421 1.39-2.16 1.946zm2.205-3.535h-3.94v3.51c.232-.14.49-.31.77-.508a15.55 15.55 0 0 0 3.17-3.002zm-11.155-4.82c.32 1.38.88 2.653 1.637 3.82h4.578v-3.82H8.276zm-1.025 0h-4.91a13.65 13.65 0 0 0 2.339 3.82h4.058a12.806 12.806 0 0 1-1.487-3.82zm5.585 8.365a16.595 16.595 0 0 1-2.162-1.955 15.402 15.402 0 0 1-1.292-1.59H5.638a13.608 13.608 0 0 0 7.198 3.545zm-2.207-3.545a15.603 15.603 0 0 0 3.155 3.001c.254.182.491.34.707.472v-3.473h-3.862zM8.173 9.827h6.318v-3.82H9.828a11.923 11.923 0 0 0-1.655 3.82zm-1.025 0a12.773 12.773 0 0 1 1.502-3.82H4.73a13.652 13.652 0 0 0-2.366 3.82h4.784zm5.515-8.278a13.608 13.608 0 0 0-6.962 3.458H9.3a15.48 15.48 0 0 1 1.334-1.624 16.784 16.784 0 0 1 2.03-1.834zM10.55 5.007h3.94V1.501a15.81 15.81 0 0 0-3.128 2.567 14.86 14.86 0 0 0-.812.94zm11.123 4.82a12.077 12.077 0 0 0-1.618-3.82H15.49v3.82h6.182zm1.024 0h4.939a13.652 13.652 0 0 0-2.366-3.82h-4.044a12.937 12.937 0 0 1 1.47 3.82zm-5.398-8.284a16.681 16.681 0 0 1 1.997 1.85c.47.515.903 1.053 1.294 1.614h3.71a13.608 13.608 0 0 0-7-3.464zm2.05 3.464a15.687 15.687 0 0 0-3.155-3.046 13.18 13.18 0 0 0-.703-.477v3.523h3.858zm8.67 14.108c.41-1.299.631-2.681.631-4.115 0-1.456-.228-2.858-.65-4.173H2A13.642 13.642 0 0 0 1.35 15c0 1.434.221 2.816.631 4.115H28.02zM15 .35C23.091.35 29.65 6.909 29.65 15c0 8.091-6.559 14.65-14.65 14.65C6.909 29.65.35 23.091.35 15 .35 6.909 6.909.35 15 .35zm10.764 17.105c.211.001.333.241.287.513-.045.265-.23.487-.429.486-.212 0-.334-.24-.287-.512.045-.266.23-.489.429-.487zm-.001.156c.094 0 .166.142.134.33-.033.199-.166.357-.274.357-.095 0-.167-.141-.134-.33.033-.199.166-.358.274-.357zm-19.005-.156c.211.001.333.241.287.513-.044.264-.23.487-.428.486-.211-.002-.317-.236-.27-.512.044-.27.214-.489.41-.487zm13.841-.018c.211.001.316.236.27.513-.044.264-.23.487-.428.487-.212-.002-.317-.237-.27-.513.044-.264.23-.487.428-.487zm-3.865 0c.212.001.334.241.288.513-.044.264-.23.487-.428.487-.212-.002-.333-.242-.288-.513.045-.265.23-.487.428-.487zm-4.496 0c.212.001.333.241.287.513-.044.264-.23.487-.428.487-.212-.002-.333-.242-.288-.513.045-.265.23-.487.43-.487zm11.258-4.641a1.29 1.29 0 0 0-.18.186.756.756 0 0 0-.113.23c-.023.067-.045.144-.18.412h-.28l-.076-.1.474-1.703.075-.057h4.374l.075.098-.532 1.762h-.263l-.078-.084c.057-.815-.152-1.076-.883-1.134l-1.194 4.548-.032.128c-.02.075-.083.296-.091.329-.06.236.133.424.444.395l.084.093-.147.415h-2.899l-.076-.096.163-.447h.024c.727-.012.92-.113.99-.716l1.255-4.59c-.413.014-.681.11-.934.33zm-3.246 1.603c.403.012.723-.126.992-.65l.246.036.065.095-.533 1.939h-.298l-.077-.069a2.094 2.094 0 0 1-.011-.218 5.957 5.957 0 0 0-.008-.226c-.013-.228-.118-.28-.624-.277l-.048-.056-.561 1.925-.028.123c-.01.045-.01.045-.022.089l-.056.215c-.096.363.03.445.644.446l.075.098-.18.445h-2.74l-.075-.099.178-.444c.36-.01.572-.151.647-.486l1.176-4.39a.45.45 0 0 0 .019-.114.32.32 0 0 1 .018-.103c.042-.135.015-.21-.076-.264-.084-.05-.214-.076-.415-.092l-.15-.01-.08-.006-.07-.096.087-.386.076-.06h4.444l.075.098-.532 1.762h-.246l-.078-.083c.052-.882-.198-1.087-1.045-1.077h-.07c-.295.003-.33.017-.404.189-.03.068-.06.16-.101.297l-.362 1.449h.148zm-4.84-2.571l.077-.064h2.582l.076.095-.162.447c-.544.011-.724.089-.822.416l-1.23 4.533-.028.086c-.048.14-.042.12-.05.157a.325.325 0 0 0-.007.056v.021c-.005.089 0 .113.02.133.038.035.138.06.326.063l.074.095-.164.448H13.52l-.077-.092.07-.387.078-.064c.463.004.778-.149.838-.4l1.212-4.513.018-.069c.081-.285.071-.245.066-.29-.012-.135-.128-.202-.304-.193l-.08-.092.07-.386zm-4.916 2.996a7854.571 7854.571 0 0 1-2.09 3.453c-.056.091-.12.14-.194.14-.06 0-.108-.032-.147-.081a.263.263 0 0 1-.049-.1v-5.288c0-.6-.035-.64-.432-.642l-.094-.092.07-.386.077-.064h2.161l.075.098-.18.444c-.212 0-.278.055-.29.17a.674.674 0 0 0-.001.092v2.721l1.32-2.112v-.547c.003-.24-.092-.316-.399-.324l-.075-.092.147-.45h2.213l.077.092-.147.45c-.33 0-.352.018-.343.342.002.07.002.136 0 .3l-.012 2.277 1.534-2.508a.496.496 0 0 0 .078-.292c-.006-.117-.07-.134-.445-.123-.094.003-.15.004-.215.004l-.077-.092.148-.45h1.985l.076.095-.162.447c-.288.007-.385.09-.568.42l-.527.868-1.158 1.91a504.609 504.609 0 0 1-1.688 2.774c-.113.174-.258.174-.374.066a.258.258 0 0 1-.069-.109l.017-3.811-.242.4zM5.157 11.5a1.3 1.3 0 0 1 .41.07c.086.026.175.059.287.103l.179.072c.064.026.111.044.152.058a.891.891 0 0 0 .32.064c.034 0 .034 0 .065.002.285.02.447-.026.556-.228h.246l.075.1-.655 2.023h-.228l-.077-.069c-.112-.901-.455-1.45-1.029-1.441-.423.005-.704.192-.803.624-.126.55.062.863.98 1.753.706.686.968 1.089.972 1.69.01 1.225-.944 2.04-2.15 2.045a2.234 2.234 0 0 1-.84-.146l-.16-.06a1.68 1.68 0 0 0-.14-.048.653.653 0 0 0-.21-.027l-.072.002a2.885 2.885 0 0 0-.263.013c-.204.022-.324.074-.424.214h-.246l-.075-.099.725-2.411h.246l.076.096c-.22.925.32 1.712 1.136 1.713.49 0 1.033-.435 1.046-.75.018-.415-.023-.584-.166-.754-.042-.049-.554-.521-.797-.79l-.032-.035a34.96 34.96 0 0 1-.234-.259c-.55-.616-.788-1.026-.79-1.532-.007-1.152.83-1.969 1.92-1.993z"/></svg>