<svg width="17" height="17" viewBox="0 0 17 17" xmlns="http://www.w3.org/2000/svg"><title>Combined Shape</title><path d="M12.276 11.342H8.773v2.122h2.588a6.675 6.675 0 0 0 .915-2.122zm.57 0a7.156 7.156 0 0 1-.832 2.122h2.22a7.584 7.584 0 0 0 1.3-2.122h-2.688zm-3.11 4.642a7.561 7.561 0 0 0 3.966-1.964h-2.046a8.547 8.547 0 0 1-.72.882c-.383.413-.79.773-1.2 1.082zm1.226-1.964h-2.19v1.95a8.64 8.64 0 0 0 2.19-1.95zm-6.198-2.678c.178.766.489 1.473.91 2.122h2.543v-2.122H4.764zm-.57 0H1.467c.316.78.757 1.496 1.3 2.122H5.02a7.116 7.116 0 0 1-.826-2.122zm3.103 4.648a9.22 9.22 0 0 1-1.2-1.087 8.446 8.446 0 0 1-.718-.883h-2.08a7.56 7.56 0 0 0 3.998 1.97zm-1.226-1.97a8.67 8.67 0 0 0 2.146 1.93v-1.93H6.071zM4.707 5.626h3.51V3.503h-2.59a6.625 6.625 0 0 0-.92 2.123zm-.57 0a7.097 7.097 0 0 1 .835-2.123H2.794a7.586 7.586 0 0 0-1.315 2.123h2.658zm3.065-4.6a7.561 7.561 0 0 0-3.869 1.922h2c.223-.315.471-.616.741-.903a9.326 9.326 0 0 1 1.128-1.019zM6.028 2.948h2.189V.999a8.785 8.785 0 0 0-2.19 1.948zm6.18 2.678a6.71 6.71 0 0 0-.9-2.123H8.774v2.123h3.435zm.569 0h2.744a7.586 7.586 0 0 0-1.315-2.123H11.96c.378.654.657 1.362.818 2.123zm-3-4.603c.38.298.755.64 1.11 1.028.261.286.502.585.719.897h2.061a7.56 7.56 0 0 0-3.89-1.925zm1.14 1.925A8.716 8.716 0 0 0 8.773.99v1.958h2.144zm4.817 7.838c.228-.721.35-1.49.35-2.286a7.58 7.58 0 0 0-.36-2.319H1.276A7.58 7.58 0 0 0 .916 8.5c0 .797.122 1.565.35 2.286h14.468zM8.5.36a8.14 8.14 0 1 1 0 16.28A8.14 8.14 0 0 1 8.5.36zm5.98 9.504c.118 0 .186.134.16.285-.024.147-.128.27-.238.27-.118 0-.185-.134-.16-.284.025-.148.129-.272.239-.271zm0 .087c.053 0 .092.079.075.184-.019.11-.093.198-.153.197-.052 0-.092-.078-.074-.183.018-.11.092-.199.152-.198zM3.92 9.864c.118 0 .185.134.16.285-.025.147-.128.27-.238.27-.117 0-.176-.131-.15-.284.025-.15.12-.272.228-.271zm7.691-.01c.117 0 .176.131.15.285-.025.147-.128.27-.238.27-.118 0-.176-.13-.15-.284.024-.147.128-.271.238-.271zm-2.147 0c.117 0 .185.134.16.285-.025.147-.128.27-.239.27-.117 0-.185-.134-.16-.284.025-.147.129-.271.239-.271zm-2.499 0c.118 0 .185.134.16.285-.025.147-.128.27-.238.27-.118 0-.185-.134-.16-.284.025-.147.128-.271.238-.271zm6.256-2.579a.75.75 0 0 0-.1.104.42.42 0 0 0-.063.128c-.013.037-.025.08-.1.228h-.156l-.042-.055.263-.946.042-.032h2.43l.042.054-.295.98h-.147l-.043-.047c.032-.453-.084-.598-.49-.63l-.664 2.527-.018.07c-.01.043-.046.165-.05.184-.034.13.074.235.246.22l.047.05-.082.231h-1.61l-.043-.053.09-.248h.014c.404-.007.511-.063.55-.398l.698-2.55c-.23.007-.379.06-.52.183zm-1.804.891c.224.007.402-.07.551-.36l.137.019.036.053-.296 1.077h-.166l-.043-.038a1.164 1.164 0 0 1-.006-.121 3.31 3.31 0 0 0-.004-.126c-.007-.126-.065-.155-.347-.154l-.026-.031-.312 1.07-.016.068-.012.05-.031.119c-.053.202.016.247.358.248l.042.054-.1.247H9.659l-.042-.054.1-.247c.2-.006.317-.084.359-.27l.653-2.44a.25.25 0 0 0 .01-.063.18.18 0 0 1 .01-.057c.024-.075.009-.117-.041-.147a.569.569 0 0 0-.231-.051l-.083-.006-.045-.003-.04-.053.05-.214.042-.034h2.47l.041.054-.296.98h-.137l-.043-.047c.03-.49-.11-.604-.58-.598h-.039c-.164.001-.183.01-.225.105a1.475 1.475 0 0 0-.056.165l-.201.805h.082zM8.728 6.737l.043-.035h1.434l.043.053-.09.248c-.303.007-.403.05-.457.231l-.684 2.52-.015.047c-.027.077-.023.066-.028.087a.18.18 0 0 0-.004.03v.013c-.003.049 0 .062.011.073.021.02.077.033.181.036l.042.052-.092.25H7.678l-.043-.052.039-.215.043-.035c.257.002.432-.083.466-.222l.673-2.508.01-.038c.045-.159.04-.136.037-.162-.007-.074-.071-.112-.17-.107l-.044-.051.039-.215zM5.996 8.402a4361.44 4361.44 0 0 1-1.16 1.919c-.032.05-.068.078-.109.078-.033 0-.06-.018-.082-.046a.146.146 0 0 1-.027-.055V7.36c0-.334-.019-.356-.24-.357l-.052-.051.04-.215.042-.035h1.2l.042.055-.1.246c-.118 0-.154.03-.16.094a.374.374 0 0 0-.001.067V8.66l.732-1.173v-.304c.003-.133-.05-.175-.22-.18l-.042-.051.081-.25h1.23l.043.05-.082.251c-.183 0-.195.01-.19.19v.167l-.007 1.265.852-1.393a.276.276 0 0 0 .043-.163c-.003-.065-.039-.074-.247-.068a3.581 3.581 0 0 1-.12.002l-.042-.051.082-.25h1.103l.042.053-.09.248c-.16.004-.214.05-.315.233l-.293.483a3043.45 3043.45 0 0 1-1.582 2.602c-.062.097-.143.097-.207.037a.143.143 0 0 1-.039-.06l.01-2.118-.135.222zM3.031 6.555a.728.728 0 0 1 .227.039c.049.015.098.033.16.058l.1.04.084.032c.086.028.12.034.178.035l.036.001c.158.012.248-.014.309-.126h.137l.041.055-.364 1.124h-.126l-.043-.038c-.062-.5-.253-.805-.572-.8-.235.002-.391.106-.446.346-.07.306.034.48.544.974.393.381.538.605.54.939.006.68-.524 1.134-1.194 1.136a1.27 1.27 0 0 1-.467-.08l-.089-.034a.934.934 0 0 0-.078-.027.363.363 0 0 0-.116-.015l-.04.001a1.603 1.603 0 0 0-.146.008c-.114.011-.18.04-.236.118h-.136l-.042-.055.403-1.34h.136L1.874 9c-.123.514.178.951.63.952.273 0 .575-.242.582-.417.01-.23-.013-.325-.092-.419-.023-.027-.308-.29-.443-.439l-.018-.02a19.425 19.425 0 0 1-.13-.143c-.305-.342-.438-.57-.44-.851-.003-.64.462-1.094 1.068-1.108z"/></svg>