<svg width="28" height="30" viewBox="0 0 28 30" xmlns="http://www.w3.org/2000/svg"><title>Combined Shape</title><path d="M24.241 0a2.871 2.871 0 0 1 2.873 2.871V30H.886V0h23.355zM2.587 1.7v26.6h22.826V2.871A1.17 1.17 0 0 0 24.241 1.7H2.587zm13.198 7.547a.85.85 0 0 1 0-1.7h5.054a.85.85 0 0 1 0 1.7h-5.054zm-4.616-3.94l1.203 1.203L8.94 9.94a.85.85 0 0 1-1.203 0L6.194 8.398l1.202-1.202.943.943 2.83-2.83zm4.616 10.543a.85.85 0 0 1 0-1.7h5.054a.85.85 0 0 1 0 1.7h-5.054zm-4.616-3.94l1.203 1.203-3.431 3.431a.85.85 0 0 1-1.203 0L6.194 15l1.202-1.202.943.943 2.83-2.83zm4.616 10.543a.85.85 0 0 1 0-1.7h5.054a.85.85 0 0 1 0 1.7h-5.054zm-8.389 0a.85.85 0 0 1 0-1.7h1.888a.85.85 0 0 1 0 1.7H7.396z"/></svg>