<svg width="50" height="46" viewBox="0 0 50 46" xmlns="http://www.w3.org/2000/svg"><title>Artboard Copy 245</title><path d="M43.785 11.26l3.286-3.228H43.3v-1.7h5.85c.47 0 .85.38.85.85v5.76h-1.7V9.21l-3.305 3.246A5.19 5.19 0 0 1 46 15.53c0 2.914-2.399 5.27-5.35 5.27-2.951 0-5.35-2.356-5.35-5.27 0-2.913 2.4-5.27 5.35-5.27a5.38 5.38 0 0 1 3.135 1zm-21.29 9.239c-3.886 0-7.042-3.1-7.042-6.933 0-3.833 3.156-6.933 7.043-6.933 3.886 0 7.043 3.1 7.043 6.933 0 3.832-3.156 6.932-7.043 6.932zm.01 17.5L12.773 38c-1.137 0-2.059-.905-2.059-2.022v-7.14c0-2.234 1.844-4.044 4.118-4.044h15.195c2.274 0 4.117 1.81 4.117 4.043V38l-11.639-.001zM40.65 11.961c-2.019 0-3.65 1.602-3.65 3.569 0 1.968 1.631 3.57 3.65 3.57s3.65-1.602 3.65-3.57c0-1.967-1.631-3.57-3.65-3.57z" fill-rule="evenodd"/></svg>