<svg width="50" height="46" viewBox="0 0 50 46" xmlns="http://www.w3.org/2000/svg"><title>Artboard Copy 248</title><path d="M42.702 13.493v2.36h2v1.7h-2v3h-1.7v-3h-2v-1.7h2v-2.36a5.85 5.85 0 1 1 1.7 0zm-20.206 7.152c-3.887 0-7.043-3.1-7.043-6.933 0-3.832 3.156-6.932 7.043-6.932 3.886 0 7.043 3.1 7.043 6.932 0 3.833-3.156 6.933-7.043 6.933zm.009 17.5l-9.732.001c-1.137 0-2.059-.905-2.059-2.022v-7.14c0-2.234 1.844-4.044 4.118-4.044h15.195c2.274 0 4.117 1.81 4.117 4.043v9.163H22.505zM41.852 3.554a4.15 4.15 0 1 0 .001 8.3 4.15 4.15 0 0 0-.001-8.3z" fill-rule="evenodd"/></svg>