<svg width="26" height="32" viewBox="0 0 26 32" xmlns="http://www.w3.org/2000/svg"><title>Combined Shape</title><path d="M13.655.15c6.426 0 11.68 5.254 11.68 11.68v8.34c0 6.426-5.254 11.68-11.68 11.68h-1.311C5.894 31.85.665 26.62.665 20.17v-8.336C.665 5.406 5.921.15 12.349.15h1.306zm8.424 12.833v-.36c0-1.829-1.5-3.329-3.329-3.329H7.525c-1.83 0-3.33 1.5-3.33 3.329v.36a3.34 3.34 0 0 0 3.33 3.329H18.75c1.829 0 3.329-1.5 3.329-3.329zm-10.605-.81a2.078 2.078 0 1 1-4.156 0v-.817l4.156.817zm2.889-.067l4.593-.903v.903a2.296 2.296 0 1 1-4.593 0z" fill-rule="evenodd"/></svg>