<svg width="18" height="18" viewBox="0 0 18 18" xmlns="http://www.w3.org/2000/svg"><title>Combined Shape</title><path d="M15.803 12.414l1.753-.575.436 1.33-.665.219-2.668.874a.78.78 0 0 1-.995-.493l-1.14-3.4 1.328-.445.222.664.434 1.293a6.87 6.87 0 0 0-.056-5.894c-1.655-3.395-5.793-4.82-9.189-3.163C1.868 4.479.443 8.617 2.1 12.013c1.656 3.395 5.793 4.82 9.189 3.163l.614 1.259c-4.09 1.995-9.066.282-11.061-3.809C-1.154 8.536.559 3.56 4.65 1.566c4.09-1.996 9.066-.283 11.06 3.808a8.267 8.267 0 0 1 .093 7.04zM10.62 5.667l.99.99L8.567 9.7H5.439V8.3h2.548l2.633-2.633z"/></svg>