<svg width="35" height="28" viewBox="0 0 35 28" xmlns="http://www.w3.org/2000/svg"><title>Artboard Copy 38</title><path d="M30.092 20.438l3.49-1.145.53 1.616-.808.265-4.617 1.513a.996.996 0 0 1-1.254-.629l-1.852-5.527 1.612-.54.27.806 1.02 3.044c1.886-3.432 2.065-7.625.295-11.255C25.834 2.55 18.48.018 12.442 2.962 6.405 5.906 3.873 13.26 6.818 19.297c2.944 6.037 10.298 8.57 16.335 5.625l.745 1.528c-6.88 3.356-15.253.473-18.608-6.408-3.356-6.88-.474-15.252 6.407-18.608S26.95.96 30.306 7.84c1.98 4.059 1.82 8.732-.214 12.597zM22.095 9.522l1.202 1.202-5.146 5.146h-5.25v-1.7h4.546l4.648-4.648z"/></svg>