<svg width="14" height="14" viewBox="0 0 14 14" xmlns="http://www.w3.org/2000/svg"><title>Combined Shape</title><path d="M12.387 9.275l1.118-.367.436 1.33-.665.219-2.003.657a.763.763 0 0 1-.965-.482l-.91-2.716 1.328-.444.222.663.175.522a4.97 4.97 0 0 0-.215-3.84c-1.2-2.46-4.196-3.49-6.656-2.291C1.792 3.726.76 6.723 1.96 9.183c1.2 2.459 4.197 3.491 6.657 2.291l.613 1.259C6.076 14.27 2.24 12.95.701 9.796-.837 6.642.484 2.806 3.64 1.267c3.154-1.538 6.99-.218 8.528 2.937a6.37 6.37 0 0 1 .22 5.07zM8.068 4.377l.99.99L6.725 7.7H4.306V6.3h1.839l1.923-1.923z"/></svg>