<svg width="30" height="30" viewBox="0 0 30 30" xmlns="http://www.w3.org/2000/svg"><title>Combined Shape</title><path d="M22.308 12.316l-6.716 6.716a.85.85 0 0 1-1.202 0l-3.816-3.815-4.417 4.416-1.202-1.202 5.018-5.017a.85.85 0 0 1 1.202 0l3.816 3.815 6.202-6.202H18.35v-1.7h4.807c.47 0 .85.38.85.85v4.807h-1.7v-2.668zM2.736 0h24.527A2.736 2.736 0 0 1 30 2.737v24.526A2.736 2.736 0 0 1 27.264 30H2.737A2.737 2.737 0 0 1 0 27.263V2.737A2.737 2.737 0 0 1 2.737 0zm0 1.7c-.573 0-1.037.464-1.037 1.037v24.526c0 .573.464 1.037 1.037 1.037h24.527c.572 0 1.036-.464 1.036-1.037V2.737c0-.573-.464-1.037-1.036-1.037H2.737z"/></svg>