<svg width="15" height="15" viewBox="0 0 15 15" xmlns="http://www.w3.org/2000/svg"><title>Artboard Copy 334</title><path d="M10.371 5.614H9.078v-1h2.457a.5.5 0 0 1 .5.5v2.457h-1V6.365L7.849 9.55a.5.5 0 0 1-.708 0L5.31 7.72 3.125 9.905l-.707-.707 2.538-2.539a.5.5 0 0 1 .708 0l1.831 1.832 2.876-2.877zM1.433 0h12.133C14.358 0 15 .642 15 1.433v12.134c0 .791-.642 1.433-1.434 1.433H1.433A1.433 1.433 0 0 1 0 13.567V1.433C0 .642.642 0 1.433 0zm0 1A.433.433 0 0 0 1 1.433v12.134c0 .239.194.433.433.433h12.133c.24 0 .434-.194.434-.433V1.433A.434.434 0 0 0 13.566 1H1.433z"/></svg>