<svg width="30" height="24" viewBox="0 0 30 24" xmlns="http://www.w3.org/2000/svg"><title>Combined Shape</title><path d="M26.501 18.01h1.8v-4.802l-2.337-7.006H19.71v7.512h-1.7V1.7H1.699v16.31h1.675a4.39 4.39 0 0 1 8.46 0h7.101a4.068 4.068 0 0 1 7.566 0zm.278 1.7a4.066 4.066 0 0 1-8.122 0H11.96a4.389 4.389 0 0 1-8.713 0H0V0h19.709v4.502h6.868a.85.85 0 0 1 .806.581l2.573 7.718a.85.85 0 0 1 .044.27v5.788c0 .47-.38.85-.85.85h-2.37zM7.603 16.492a2.688 2.688 0 1 0 0 5.376 2.688 2.688 0 0 0 0-5.376zm15.115.643a2.366 2.366 0 1 0 0 4.733 2.366 2.366 0 0 0 0-4.733z"/></svg>