<svg width="14" height="12" viewBox="0 0 14 12" xmlns="http://www.w3.org/2000/svg"><title>Combined Shape</title><path d="M6.35 6.422L4.883 7.835 3.98 6.9l2.277-2.193a1.07 1.07 0 0 1 1.484 0L10.018 6.9l-.902.936L7.65 6.422v4.943h-1.3V6.422zm7.6.728c0 1.497-1.167 2.714-2.75 2.874H8.87v-1.3h.65l1.613.003c.87-.09 1.517-.764 1.517-1.577 0-.814-.646-1.489-1.517-1.578l-.525-.055-.055-.525C10.376 3.285 8.833 1.935 7 1.935c-1.571 0-2.944.997-3.415 2.425l-.123.376-.391.063c-.971.155-1.721.997-1.721 1.946 0 1.029.825 1.888 1.87 1.979h1.91v1.3h-.65l-1.315-.002C1.405 9.872.05 8.462.05 6.745c0-1.469 1.033-2.749 2.433-3.145C3.227 1.83 4.997.635 7 .635c2.32 0 4.306 1.598 4.769 3.737 1.265.343 2.181 1.45 2.181 2.778z"/></svg>