<svg width="21" height="19" viewBox="0 0 21 19" xmlns="http://www.w3.org/2000/svg"><title>Group</title><path d="M6.834 7.99c-2.148 0-3.895-1.719-3.895-3.845C2.939 2.019 4.686.3 6.834.3c2.15 0 3.896 1.719 3.896 3.845 0 2.126-1.747 3.845-3.896 3.845zm0-1.4c1.381 0 2.496-1.097 2.496-2.445C9.33 2.797 8.215 1.7 6.834 1.7c-1.38 0-2.495 1.097-2.495 2.445 0 1.348 1.115 2.445 2.495 2.445zm5.902 5.44h5.467a2.306 2.306 0 0 1 2.306 2.306v3.494a.7.7 0 0 1-1.4 0v-3.494c0-.5-.405-.906-.906-.906h-5.467v1.85a.7.7 0 1 1-1.4 0v-3.494c0-.5-.405-.906-.905-.906H3.278c-.5 0-.905.405-.905.906v2.691c0 .057.046.103.102.103h4.38a.7.7 0 0 1 0 1.4h-4.38c-.83 0-1.502-.673-1.502-1.503v-2.691A2.306 2.306 0 0 1 3.278 9.48h7.153a2.306 2.306 0 0 1 2.305 2.306v.244zm2.734-1.49c-2.148 0-3.895-1.719-3.895-3.845 0-2.126 1.747-3.845 3.896-3.845s3.895 1.719 3.895 3.845c0 2.126-1.746 3.845-3.895 3.845zm0-1.4c1.382 0 2.496-1.097 2.496-2.445 0-1.348-1.114-2.445-2.495-2.445-1.38 0-2.496 1.097-2.496 2.445 0 1.348 1.115 2.445 2.496 2.445z"/></svg>