<svg width="29" height="18" viewBox="0 0 29 18" xmlns="http://www.w3.org/2000/svg"><title>Combined Shape</title><path d="M25.203 15.414l.001.002c.959-.674 2.058-1.067 3.242-.89l-.252 1.682c-.72-.108-1.493.199-2.168.713a1.365 1.365 0 0 1-1.677-.02c-1.493-1.175-2.777-.95-3.87-.028a1.358 1.358 0 0 1-1.704.033c-1.617-1.228-2.8-1.036-3.74-.14a1.34 1.34 0 0 1-1.816.033c-1.185-1.064-2.544-.808-3.834.135a1.354 1.354 0 0 1-1.71-.1c-.98-.88-1.853-1.064-2.66-.774l.002.004-.138.05a3.362 3.362 0 0 0-.865.563c-.546.474-1.39.488-1.906-.063-.133-.142-.42-.285-.812-.393a5.738 5.738 0 0 0-.897-.164 5.26 5.26 0 0 0-.399-.03l.04-1.7c.116.003.304.014.54.04.395.042.79.111 1.168.215a4.13 4.13 0 0 1 1.09.455L1.013 9.99a.85.85 0 0 1 .799-1.14h3.503V4.082h10.34V.001h8.103l-.073 8.85h2.685c.59 0 1 .585.8 1.14l-1.967 5.423zm-1.516-.805l1.47-4.059H3.024l1.414 3.909c1.287-.474 2.727-.27 4.177.94 1.727-1.173 3.696-1.506 5.489-.079 1.43-1.204 3.351-1.443 5.494.08 1.177-.904 2.586-1.295 4.09-.791zM21.985 8.85l.059-7.15h-4.688v7.15h4.63zm-6.33 0V5.78h-8.64v3.07h8.64z"/></svg>