<svg width="14" height="10" viewBox="0 0 14 10" xmlns="http://www.w3.org/2000/svg"><title>Combined Shape</title><path d="M1.842 5.176c.337.428.73.856 1.17 1.255C4.238 7.543 5.584 8.199 7 8.199s2.76-.656 3.989-1.768A10.333 10.333 0 0 0 12.294 5a10.608 10.608 0 0 0-1.305-1.43C9.76 2.456 8.415 1.8 7 1.8s-2.76.656-3.989 1.768A10.333 10.333 0 0 0 1.706 5c.041.055.086.113.136.176zm-1.584-.55c.09-.141.252-.374.484-.669a11.72 11.72 0 0 1 1.33-1.425C3.533 1.207 5.186.4 7 .4c1.813 0 3.466.806 4.929 2.13.501.455.945.94 1.329 1.426.232.295.395.528.484.67l.236.373-.236.374c-.09.141-.252.374-.484.669a11.72 11.72 0 0 1-1.33 1.425C10.467 8.793 8.814 9.6 7 9.6c-1.813 0-3.466-.806-4.929-2.13A11.72 11.72 0 0 1 .742 6.042a8.407 8.407 0 0 1-.484-.67L.022 5l.236-.374zm6.758 2.55A2.257 2.257 0 0 0 9.271 4.92a2.257 2.257 0 0 0-2.255-2.255A2.257 2.257 0 0 0 4.761 4.92a2.257 2.257 0 0 0 2.255 2.255z"/></svg>