<svg width="34" height="40" viewBox="0 0 34 40" xmlns="http://www.w3.org/2000/svg"><title>Combined Shape</title><path d="M27.512 34.65a9.04 9.04 0 1 1 1.202-1.202l5.239 5.238-1.202 1.202-5.239-5.239zM11.222 14.2A7.043 7.043 0 0 1 4.18 7.155a7.043 7.043 0 1 1 14.086 0 7.043 7.043 0 0 1-7.043 7.043zm0-1.7a5.343 5.343 0 1 0 0-10.688 5.343 5.343 0 0 0 0 10.687zM9.539 28.411v1.7H2.7A2.653 2.653 0 0 1 .047 27.46v-5.492a4.456 4.456 0 0 1 4.456-4.456H14.81v1.7H4.503a2.756 2.756 0 0 0-2.756 2.756v5.492c0 .527.427.953.953.953h6.838zm12.211-8.068a7.34 7.34 0 1 0 0 14.68 7.34 7.34 0 0 0 0-14.68z"/></svg>