<svg width="44" height="30" viewBox="0 0 44 30" xmlns="http://www.w3.org/2000/svg"><title>Artboard Copy 339</title><path d="M29.29 2.611a9.04 9.04 0 0 1 8.877 14.6l5.239 5.24-1.202 1.202-5.239-5.239a9.015 9.015 0 0 1-3.385 1.759C32.6 25.739 27.715 30 21.88 30 15.343 30 10 24.656 10 18.121v-6.242C10 5.344 15.344 0 21.88 0c2.797 0 5.376.979 7.41 2.611zm-1.975.674A10.096 10.096 0 0 0 21.88 1.7c-5.597 0-10.18 4.582-10.18 10.179v6.242c0 5.597 4.583 10.179 10.18 10.179 4.788 0 8.834-3.355 9.902-7.83a9.04 9.04 0 0 1-9.62-9.022 9.041 9.041 0 0 1 5.153-8.163zm3.887.824a7.34 7.34 0 1 0 0 14.68 7.34 7.34 0 0 0 0-14.68z"/></svg>