<svg width="45" height="30" viewBox="0 0 45 30" xmlns="http://www.w3.org/2000/svg"><title>Artboard Copy 342</title><path d="M28.378 3.314A10.486 10.486 0 0 0 22.78 1.7c-5.814 0-10.573 4.76-10.574 10.598l-.012.372a162.871 162.871 0 0 1-.263 4.803 162.236 162.236 0 0 1-1.097 10.78c.276-.02.568-.047.874-.08 1.412-.154 2.823-.423 4.13-.833.831-.26 1.59-.568 2.262-.926-2.853-1.635-4.785-4.711-4.785-8.219v-6.991l.506-.224 4.876-2.157a2.413 2.413 0 0 1 1.66-.106c.902.268 1.903.514 2.99.722a9.06 9.06 0 0 1 5.03-6.124zm5.22 17.145a9.106 9.106 0 0 1-1.657.114 9.53 9.53 0 0 1-4.527 5.867c.292.15.593.291.902.422 1.347.568 2.795.92 4.269 1.095.673.08 1.292.116 1.837.123a64.57 64.57 0 0 1-.417-3.02 92.415 92.415 0 0 1-.407-4.601zM30.395 2.664a9.04 9.04 0 0 1 8.714 14.634l5.238 5.24-1.202 1.201-5.239-5.239a9.03 9.03 0 0 1-2.632 1.519c.102 1.66.24 3.288.42 4.846.16 1.386.35 2.687.57 3.887a.85.85 0 0 1-.766 1c-.048.005-.13.01-.244.015-2.23.1-4.954-.223-7.599-1.339a13.82 13.82 0 0 1-2.191-1.16 9.398 9.398 0 0 1-2.683.39 9.396 9.396 0 0 1-2.776-.417c-1.029.717-2.262 1.283-3.657 1.72-1.424.447-2.94.736-4.455.9A24.063 24.063 0 0 1 9.855 30a.85.85 0 0 1-.847-.973c.557-3.825.958-7.793 1.228-11.673a161.179 161.179 0 0 0 .26-4.747l.012-.333C10.508 5.52 16.028 0 22.78 0c2.87 0 5.518.997 7.614 2.664zm-7.282 8.46a32.838 32.838 0 0 1-3.237-.778.71.71 0 0 0-.492.031l-4.368 1.932v5.885c0 4.268 3.496 7.764 7.765 7.764 3.513 0 6.503-2.368 7.451-5.585a9.043 9.043 0 0 1-7.12-9.249zm9.03-6.929a7.34 7.34 0 1 0 .001 14.68 7.34 7.34 0 0 0 0-14.68z"/></svg>