<svg width="45" height="30" viewBox="0 0 45 30" xmlns="http://www.w3.org/2000/svg"><title>Artboard Copy 345</title><path d="M32.14 22.333a9.04 9.04 0 0 1-8.664-11.41c-2.026.052-4.192-.267-6.45-1.066l-4.326 3.9v4.364c0 5.597 4.583 10.179 10.18 10.179 4.096 0 7.65-2.455 9.26-5.967zM29.918 4.545A10.143 10.143 0 0 0 22.88 1.7c-5.456 0-9.949 4.356-10.17 9.76l3.56-3.21a.85.85 0 0 1 .873-.162c2.489.952 4.846 1.26 7.004 1.1a9.06 9.06 0 0 1 5.772-4.643zm2.055-.289a9.04 9.04 0 0 1 7.194 14.8l5.239 5.24-1.202 1.202-5.239-5.24a9.007 9.007 0 0 1-3.912 1.886C32.396 26.714 28.004 30 22.88 30 16.344 30 11 24.656 11 18.121v-6.242C11 5.344 16.344 0 22.88 0c3.64 0 6.91 1.658 9.093 4.256zM22.095 22.93a8.43 8.43 0 0 1-1.537.546c-.368.088-.72.135-1.054.135a.85.85 0 0 1 0-1.7c.191 0 .414-.03.661-.089.377-.09.793-.241 1.224-.438a10.327 10.327 0 0 0 1.036-.549.85.85 0 0 1 .95.029c.172.123.499.324.922.526.685.327 1.361.52 1.957.52a.85.85 0 0 1 0 1.7c-.888 0-1.795-.259-2.69-.686a9.335 9.335 0 0 1-.706-.374c-.22.119-.477.25-.763.38zM32.202 5.954a7.34 7.34 0 1 0 0 14.68 7.34 7.34 0 0 0 0-14.68z"/></svg>