<svg width="26" height="30" viewBox="0 0 26 30" xmlns="http://www.w3.org/2000/svg"><title>Combined Shape</title><path d="M4.294 9.79L.262 5.94l3.836-3.837L7.24 5.075 10.372.063l.402-.05.097-.008c.521-.033 1.228.055 2.072.353 1.246.44 2.533 1.258 3.81 2.535 1.278 1.277 2.098 2.564 2.537 3.811.298.844.386 1.551.353 2.073-.005.065-.005.065-.009.097l-.05.402-4.989 3.119 10.897 10.98a.85.85 0 0 1 .246.599v5.176c0 .757-.915 1.136-1.45.6L9.873 15.347l-1.755 1.097-4.913-4.913 1.089-1.74zM6.32 6.545L4.131 4.474 2.694 5.912l2.52 2.405 1.106-1.77zm5.033 7.875l12.685 12.677v-2.774L13.117 13.319l-1.764 1.102zm4.199-10.325c-1.683-1.682-3.148-2.32-4.201-2.392l-5.987 9.58 3 3 9.58-5.987c-.073-1.054-.71-2.52-2.392-4.201z"/></svg>