<svg width="23" height="35" viewBox="0 0 23 35" xmlns="http://www.w3.org/2000/svg"><title>Artboard Copy 393</title><path d="M14.46 28.14a4.942 4.942 0 0 1-5.175 2.713L3.982 34.83a.85.85 0 0 1-1.11-.08l-1.638-1.636a.85.85 0 0 1-.078-1.111l1.719-2.292a22.406 22.406 0 0 1-1.686.143c-.156.006-.269.009-.333.01a.85.85 0 0 1-.847-.973 129.25 129.25 0 0 0 1.003-9.543 131.963 131.963 0 0 0 .213-3.881c.005-.144.008-.242.01-.268C1.234 9.588 5.821 5 11.432 5c5.613 0 10.2 4.588 10.2 10.21v.132c-.007.92.007 2.176.058 3.645.078 2.233.227 4.44.465 6.499.13 1.132.284 2.194.464 3.173a.85.85 0 0 1-.765 1c-.041.004-.11.008-.207.013-1.845.082-4.096-.185-6.286-1.108a12.19 12.19 0 0 1-.902-.425zm.44-2.96a6.215 6.215 0 0 0 2.735-5.135v-5.058c-3.407-.04-6.352-.543-8.623-1.216a.427.427 0 0 0-.296.019l-3.483 1.54v4.715a6.136 6.136 0 0 0 .788 3.016 4.943 4.943 0 0 1 8.88 2.118zm-9.703-.296a7.836 7.836 0 0 1-1.664-4.839v-5.822l.506-.224 3.99-1.764a2.128 2.128 0 0 1 1.465-.095c2.309.685 5.394 1.188 8.981 1.147l.86-.01v6.768a7.917 7.917 0 0 1-3.786 6.739c.155.075.313.146.474.214 1.088.458 2.259.743 3.452.885.47.056.91.085 1.304.096a53.7 53.7 0 0 1-.312-2.299 84.387 84.387 0 0 1-.475-6.633 90.755 90.755 0 0 1-.06-3.717l.001-.13c0-4.673-3.826-8.5-8.5-8.5-4.672 0-8.499 3.827-8.499 8.523l-.01.306c-.01.246-.021.532-.036.856-.043.922-.102 1.957-.18 3.08a133.61 133.61 0 0 1-.872 8.644 20.01 20.01 0 0 0 2.518-.37l.78-1.039a4.985 4.985 0 0 1 .063-1.816zm.64 3.712l-2.88 3.837.595.595L7.39 30.15a4.968 4.968 0 0 1-1.554-1.554zm4.184-5.873a3.242 3.242 0 1 0 0 6.483 3.242 3.242 0 0 0 0-6.483z"/></svg>