<svg width="24" height="42" viewBox="0 0 24 42" xmlns="http://www.w3.org/2000/svg"><title>Artboard Copy 390</title><path d="M6.79 32.927a4.942 4.942 0 1 1 9.883.165c3.257-1.75 5.386-5.175 5.386-8.971v-6.242c0-5.597-4.583-10.18-10.18-10.18-5.597 0-10.18 4.583-10.18 10.18v6.242c0 3.662 1.98 6.997 5.092 8.806zm9.36 2.275a4.941 4.941 0 0 1-5.153 2.668l-5.303 3.977a.85.85 0 0 1-1.111-.079l-1.637-1.637a.85.85 0 0 1-.079-1.111l3.35-4.465C2.428 32.486 0 28.506 0 24.12v-6.242c0-6.536 5.343-11.88 11.879-11.88s11.88 5.344 11.88 11.88v6.242c0 4.931-3.071 9.32-7.61 11.08zM9.1 37.167a4.968 4.968 0 0 1-1.553-1.554L4.669 39.45l.595.595L9.1 37.167zm2.631-7.427a3.242 3.242 0 1 0 0 6.484 3.242 3.242 0 0 0 0-6.484z"/></svg>