<svg width="24" height="42" viewBox="0 0 24 42" xmlns="http://www.w3.org/2000/svg"><title>Artboard Copy 396</title><path d="M15.993 35.306a4.94 4.94 0 0 1-5.057 2.488l-5.303 3.977a.85.85 0 0 1-1.11-.079l-1.638-1.637a.85.85 0 0 1-.079-1.111L6.17 34.46C2.492 32.378.12 28.454.12 24.121V17.88C.12 11.344 5.465 6 12 6c6.535 0 11.879 5.344 11.879 11.88v6.24c0 5.048-3.216 9.509-7.887 11.186zm.612-2.114c3.352-1.711 5.575-5.191 5.575-9.072v-5.298l-4.229-2.965c-.325.134-.747.284-1.258.433-3.088.898-6.681.934-10.546-.433l-4.327 3.9v4.363c0 3.601 1.916 6.876 4.91 8.7a4.942 4.942 0 1 1 9.875.372zm-9.118 2.345l-2.879 3.837.595.595L9.04 37.09a4.968 4.968 0 0 1-1.553-1.554zm14.624-18.84C21.52 11.652 17.197 7.701 12 7.701c-5.457 0-9.95 4.356-10.172 9.76l3.56-3.21a.85.85 0 0 1 .874-.163c3.68 1.408 7.072 1.408 9.955.57.415-.121.78-.25 1.089-.377.178-.073.294-.128.343-.153a.85.85 0 0 1 .88.058l3.58 2.511zM11.67 29.664a3.242 3.242 0 1 0 0 6.484 3.242 3.242 0 0 0 0-6.484z"/></svg>