<svg width="14" height="14" viewBox="0 0 14 14" xmlns="http://www.w3.org/2000/svg"><title>Combined Shape</title><path d="M2.61 9.988h6.645c1.53 0 2.782-1.3 2.782-2.914v-.587h1.2v.587c0 2.266-1.778 4.114-3.982 4.114H2.61l1.645 2.056-.937.75-.375-.47L.94 11.02a.7.7 0 0 1 .004-.87l2.375-2.968.937.75-.375.468-1.27 1.588zm8.78-5.975H4.743c-1.53 0-2.781 1.3-2.781 2.913v.587h-1.2v-.587c0-2.266 1.778-4.114 3.982-4.114h6.644L9.744.756l.937-.75.375.47L13.06 2.98a.7.7 0 0 1-.004.87l-2.375 2.968-.937-.75.375-.468 1.27-1.587z"/></svg>