<svg width="18" height="18" viewBox="0 0 18 18" xmlns="http://www.w3.org/2000/svg"><title>Combined Shape</title><path d="M2.824 13.125h9.146c2.124 0 3.855-1.799 3.855-4.029v-.771h1.2v.771c0 2.883-2.258 5.229-5.055 5.229H2.824l2.294 2.869-.937.75-.375-.47-2.63-3.289a.728.728 0 0 1-.004-.917l3.01-3.761.936.75-.374.468-1.92 2.4zm12.352-8.25H6.03c-2.124 0-3.855 1.799-3.855 4.029v.771h-1.2v-.771c0-2.883 2.258-5.229 5.055-5.229h9.146L12.882.806l.937-.75.375.47 2.63 3.289a.728.728 0 0 1 .004.917l-3.01 3.761-.936-.75.374-.468 1.92-2.4z"/></svg>